<svg width="24" height="24" viewBox="0 0 24 24" fill="none" xmlns="http://www.w3.org/2000/svg">
    <path d="M12 2.25C6.26696 2.25 1.5 6.4687 1.5 11.85V11.8524C1.50222 12.4511 1.56543 13.0491 1.68867 13.636C1.70592 13.7181 1.73813 13.7951 1.78319 13.862C1.82826 13.9289 1.88517 13.9841 1.95021 14.0242C2.01524 14.0642 2.08694 14.0881 2.16061 14.0943C2.23428 14.1005 2.30827 14.0889 2.37774 14.0602C2.55307 13.9882 2.72907 13.9228 2.90889 13.8657C6.3178 12.8223 9.61477 14.6479 10.3532 17.7985C10.5631 18.7026 10.5473 19.6618 10.304 20.6087C10.2822 20.6933 10.277 20.7823 10.2888 20.8695C10.3006 20.9566 10.329 21.0398 10.3721 21.1129C10.4152 21.1861 10.4718 21.2475 10.538 21.2928C10.6043 21.3381 10.6784 21.3662 10.7552 21.375C11.167 21.4226 11.5809 21.4472 11.9959 21.45H12C17.733 21.45 22.5 17.2313 22.5 11.85C22.5 6.4687 17.733 2.25 12 2.25ZM12 3.45C17.285 3.45 21.45 7.29017 21.45 11.85C21.45 16.4086 17.2871 20.2479 12.0041 20.25C11.7772 20.2484 11.5514 20.2239 11.3253 20.2078C11.4647 19.2961 11.5711 18.3712 11.3663 17.4891C10.4547 13.5996 6.51367 11.5252 2.64229 12.7078C2.60771 12.421 2.55107 12.1362 2.55 11.8477C2.55141 7.28885 6.71586 3.45 12 3.45ZM11.475 4.65C10.6114 4.65 9.9 5.46299 9.9 6.45C9.9 7.43701 10.6114 8.25 11.475 8.25C12.3386 8.25 13.05 7.43701 13.05 6.45C13.05 5.46299 12.3386 4.65 11.475 4.65ZM7.275 5.85C6.41137 5.85 5.7 6.66299 5.7 7.65C5.7 8.63701 6.41137 9.45 7.275 9.45C8.13863 9.45 8.85 8.63701 8.85 7.65C8.85 6.66299 8.13863 5.85 7.275 5.85ZM11.475 5.85C11.7712 5.85 12 6.11152 12 6.45C12 6.78848 11.7712 7.05 11.475 7.05C11.1788 7.05 10.95 6.78848 10.95 6.45C10.95 6.11152 11.1788 5.85 11.475 5.85ZM15.675 5.85C14.8114 5.85 14.1 6.66299 14.1 7.65C14.1 8.63701 14.8114 9.45 15.675 9.45C16.5386 9.45 17.25 8.63701 17.25 7.65C17.25 6.66299 16.5386 5.85 15.675 5.85ZM7.275 7.05C7.57117 7.05 7.8 7.31152 7.8 7.65C7.8 7.98848 7.57117 8.25 7.275 8.25C6.97883 8.25 6.75 7.98848 6.75 7.65C6.75 7.31152 6.97883 7.05 7.275 7.05ZM15.675 7.05C15.9712 7.05 16.2 7.31152 16.2 7.65C16.2 7.98848 15.9712 8.25 15.675 8.25C15.3788 8.25 15.15 7.98848 15.15 7.65C15.15 7.31152 15.3788 7.05 15.675 7.05ZM18.825 9.45C17.9614 9.45 17.25 10.263 17.25 11.25C17.25 12.237 17.9614 13.05 18.825 13.05C19.6886 13.05 20.4 12.237 20.4 11.25C20.4 10.263 19.6886 9.45 18.825 9.45ZM18.825 10.65C19.1212 10.65 19.35 10.9115 19.35 11.25C19.35 11.5885 19.1212 11.85 18.825 11.85C18.5288 11.85 18.3 11.5885 18.3 11.25C18.3 10.9115 18.5288 10.65 18.825 10.65ZM15.675 14.25C14.8114 14.25 14.1 15.063 14.1 16.05C14.1 17.037 14.8114 17.85 15.675 17.85C16.5386 17.85 17.25 17.037 17.25 16.05C17.25 15.063 16.5386 14.25 15.675 14.25ZM15.675 15.45C15.9712 15.45 16.2 15.7115 16.2 16.05C16.2 16.3885 15.9712 16.65 15.675 16.65C15.3788 16.65 15.15 16.3885 15.15 16.05C15.15 15.7115 15.3788 15.45 15.675 15.45Z" fill="white"/>
</svg>
