<svg width="24" height="24" viewBox="0 0 24 24" fill="none" xmlns="http://www.w3.org/2000/svg">
    <path fill-rule="evenodd" clip-rule="evenodd" d="M5.27078 8.214C6.02055 6.312 6.92243 5 8.96408 5H14.4367C16.4764 5 17.3793 6.312 18.13 8.214L18.8798 10.249C19.4385 10.2559 19.9517 10.5661 20.2282 11.064C20.3909 11.3476 20.4761 11.6709 20.4749 12V14.624C20.4822 15.2367 20.1806 15.8098 19.6774 16.14C19.438 16.2929 19.1618 16.3739 18.8798 16.374H4.52003C4.23808 16.3739 3.9618 16.2929 3.72248 16.14C3.2192 15.8098 2.91767 15.2367 2.92493 14.624V12C2.92387 11.6713 3.00908 11.3483 3.1716 11.065C3.44814 10.5671 3.96136 10.2569 4.52003 10.25L5.27078 8.214Z" stroke="white" stroke-width="1.5" stroke-linecap="round" stroke-linejoin="round"/>
    <path d="M6.86598 16.375C6.86598 15.9608 6.5302 15.625 6.11598 15.625C5.70177 15.625 5.36598 15.9608 5.36598 16.375H6.86598ZM6.11598 17.688H5.36598C5.36598 17.6958 5.3661 17.7036 5.36635 17.7114L6.11598 17.688ZM4.91868 19L4.89188 19.7495C4.90955 19.7502 4.92723 19.7502 4.94489 19.7496L4.91868 19ZM3.72236 17.687L4.47197 17.711C4.47223 17.703 4.47236 17.695 4.47236 17.687H3.72236ZM4.47236 16.14C4.47236 15.7258 4.13657 15.39 3.72236 15.39C3.30814 15.39 2.97236 15.7258 2.97236 16.14H4.47236ZM4.51991 9.49902C4.10569 9.49902 3.76991 9.83481 3.76991 10.249C3.76991 10.6632 4.10569 10.999 4.51991 10.999V9.49902ZM18.8797 10.999C19.2939 10.999 19.6297 10.6632 19.6297 10.249C19.6297 9.83481 19.2939 9.49902 18.8797 9.49902V10.999ZM18.0346 16.374C18.0346 15.9598 17.6988 15.624 17.2846 15.624C16.8704 15.624 16.5346 15.9598 16.5346 16.374H18.0346ZM17.2846 17.687L18.0332 17.7336C18.0341 17.7181 18.0346 17.7026 18.0346 17.687H17.2846ZM19.6782 17.687H18.9282C18.9282 17.7026 18.9287 17.7181 18.9297 17.7336L19.6782 17.687ZM20.4282 16.14C20.4282 15.7258 20.0925 15.39 19.6782 15.39C19.264 15.39 18.9282 15.7258 18.9282 16.14H20.4282ZM5.84981 12.75C5.43559 12.75 5.09981 13.0858 5.09981 13.5C5.09981 13.9142 5.43559 14.25 5.84981 14.25V12.75ZM6.82481 14.25C7.23902 14.25 7.57481 13.9142 7.57481 13.5C7.57481 13.0858 7.23902 12.75 6.82481 12.75V14.25ZM16.5748 12.75C16.1606 12.75 15.8248 13.0858 15.8248 13.5C15.8248 13.9142 16.1606 14.25 16.5748 14.25V12.75ZM17.5498 14.25C17.964 14.25 18.2998 13.9142 18.2998 13.5C18.2998 13.0858 17.964 12.75 17.5498 12.75V14.25ZM5.36598 16.375V17.688H6.86598V16.375H5.36598ZM5.36635 17.7114C5.37591 18.0175 5.14551 18.2416 4.89247 18.2505L4.94489 19.7496C6.05896 19.7106 6.89986 18.7608 6.86562 17.6646L5.36635 17.7114ZM4.94548 18.2505C4.69242 18.2415 4.46217 18.0171 4.47197 17.711L2.97274 17.663C2.93762 18.7592 3.77782 19.7097 4.89188 19.7495L4.94548 18.2505ZM4.47236 17.687V16.14H2.97236V17.687H4.47236ZM4.51991 10.999H18.8797V9.49902H4.51991V10.999ZM16.5346 16.374V17.687H18.0346V16.374H16.5346ZM16.5361 17.6404C16.4909 18.3667 16.8422 19.0678 17.4639 19.4543L18.2558 18.1803C18.1135 18.0919 18.0214 17.9219 18.0332 17.7336L16.5361 17.6404ZM17.4639 19.4543C18.0884 19.8424 18.8744 19.8424 19.4989 19.4543L18.7071 18.1803C18.5675 18.2671 18.3954 18.2671 18.2558 18.1803L17.4639 19.4543ZM19.4989 19.4543C20.1207 19.0678 20.472 18.3667 20.4268 17.6404L18.9297 17.7336C18.9414 17.9219 18.8494 18.0919 18.7071 18.1803L19.4989 19.4543ZM20.4282 17.687V16.14H18.9282V17.687H20.4282ZM5.84981 14.25H6.82481V12.75H5.84981V14.25ZM16.5748 14.25H17.5498V12.75H16.5748V14.25Z" fill="white"/>
</svg>
