<svg width="24" height="24" viewBox="0 0 24 24" fill="none" xmlns="http://www.w3.org/2000/svg">
    <path d="M16.1858 6.82099C15.8816 7.19574 15.9234 7.75941 16.2793 8.07984L20.5283 11.9071L16.2793 15.7344C15.9235 16.0548 15.8817 16.6184 16.1858 16.9932C16.3534 17.1997 16.591 17.3059 16.8302 17.3059C17.0251 17.3059 17.2208 17.2355 17.3805 17.0917L22.3829 12.5859C22.5712 12.4163 22.6796 12.1683 22.6796 11.9072C22.6796 11.6461 22.5712 11.3982 22.3829 11.2285L17.3806 6.72264C17.025 6.40205 16.4898 6.44616 16.1858 6.82099Z" fill="white"/>
    <path d="M7.16976 17.3059C7.4089 17.3059 7.64669 17.1999 7.81425 16.9933C8.11838 16.6185 8.07659 16.0548 7.72074 15.7344L3.47172 11.9072L7.72074 8.0799C8.07651 7.75948 8.1183 7.19589 7.81425 6.82106C7.51019 6.44622 6.9751 6.40203 6.61941 6.72253L1.61706 11.2284C1.42868 11.398 1.32031 11.646 1.32031 11.9071C1.32031 12.1682 1.42868 12.4161 1.61706 12.5858L6.61941 17.0916C6.7791 17.2356 6.97487 17.3059 7.16976 17.3059Z" fill="white"/>
    <path d="M9.85775 18.8422C9.94483 18.8721 10.0333 18.8864 10.1203 18.8864C10.4774 18.8864 10.8095 18.6466 10.926 18.2697L14.6866 6.09819C14.8315 5.62927 14.5882 5.12536 14.1431 4.97285C13.698 4.82009 13.2197 5.07656 13.075 5.54548L9.3144 17.717C9.16932 18.1857 9.41276 18.6897 9.85775 18.8422Z" fill="white"/>
</svg>
