<svg width="24" height="24" viewBox="0 0 24 24" fill="none" xmlns="http://www.w3.org/2000/svg">
    <path d="M8.8002 11.2001C6.59108 11.2001 4.8002 9.40922 4.8002 7.2001V4.0001C4.8002 3.55834 5.15844 3.2001 5.6002 3.2001H6.4002C6.84196 3.2001 7.2002 2.84186 7.2002 2.4001C7.2002 1.95834 6.84196 1.6001 6.4002 1.6001H5.6002C4.27476 1.6001 3.2002 2.67466 3.2002 4.0001V7.2001C3.20228 9.03466 4.10548 10.7513 5.6162 11.7921C7.06116 13.066 7.92244 14.8753 8.0002 16.8001C8.0002 19.8929 10.5074 22.4001 13.6002 22.4001C16.693 22.4001 19.2002 19.8929 19.2002 16.8001V15.8881C20.9114 15.4463 21.9404 13.7009 21.4986 11.9897C21.0567 10.2785 19.3114 9.24954 17.6002 9.6913C15.889 10.1332 14.86 11.8785 15.3018 13.5897C15.5928 14.7169 16.473 15.5971 17.6002 15.8881V16.8001C17.6002 19.0092 15.8093 20.8001 13.6002 20.8001C11.3911 20.8001 9.6002 19.0092 9.6002 16.8001C9.68196 14.8729 10.5493 13.0631 12.0002 11.7921C13.5048 10.7476 14.4018 9.03178 14.4002 7.2001V4.0001C14.4002 2.67466 13.3256 1.6001 12.0002 1.6001H11.2002C10.7584 1.6001 10.4002 1.95834 10.4002 2.4001C10.4002 2.84186 10.7584 3.2001 11.2002 3.2001H12.0002C12.442 3.2001 12.8002 3.55834 12.8002 4.0001V7.2001C12.8002 9.40922 11.0093 11.2001 8.8002 11.2001ZM18.4002 14.4001C17.5165 14.4001 16.8002 13.6838 16.8002 12.8001C16.8002 11.9164 17.5165 11.2001 18.4002 11.2001C19.2839 11.2001 20.0002 11.9164 20.0002 12.8001C20.0002 13.6838 19.2839 14.4001 18.4002 14.4001Z" fill="white"/>
</svg>
