<svg width="24" height="24" viewBox="0 0 24 24" fill="none" xmlns="http://www.w3.org/2000/svg">
    <path d="M3.18023 4.39966C4.01867 3.84666 4.90621 3.64103 5.74703 3.80458C6.52703 3.95642 7.25378 4.41995 7.84933 5.14533L14.085 12.4537C14.7536 13.1696 15.288 13.2611 17.1993 13.4946C17.5573 13.5383 17.9631 13.5879 18.417 13.649C19.4781 13.7921 20.5314 14.5137 21.3066 15.6289C22.0762 16.7358 22.5 18.0859 22.5 19.4307C22.5 20.296 21.8852 21 21.1295 21H13.8204C11.8723 21 11.0415 19.4642 10.238 17.979C10.1401 17.7979 10.0388 17.6107 9.93399 17.4227C8.8915 15.5524 8.03841 14.0225 6.99842 12.9985V20.2153C6.99842 20.6487 6.69162 21 6.31317 21H4.02905C3.69535 21 3.41017 20.7247 3.35369 20.3481L1.76167 9.72764C1.64834 9.40342 1.5693 9.04712 1.52943 8.66442C1.34708 6.91472 2.02597 5.16097 3.18023 4.39966ZM4.60667 19.4307H5.62788V12.0189C5.04657 11.7449 4.39233 11.5944 3.62718 11.5843C3.56459 11.5835 3.50245 11.5729 3.44236 11.5527C3.43641 11.5508 3.43067 11.5485 3.42477 11.5464L4.60667 19.4307ZM2.89025 8.47857C2.92946 8.85478 3.09119 9.73595 3.75051 10.0173C7.48876 10.1199 9.08001 12.974 11.0901 16.5798C11.199 16.7752 11.3028 16.967 11.4031 17.1526C12.2354 18.6911 12.6859 19.4307 13.8205 19.4307H21.1295C21.1295 17.4232 19.7603 15.4104 18.2568 15.2077C17.8103 15.1475 17.4084 15.0984 17.0539 15.0551C15.0753 14.8134 14.1724 14.7031 13.1357 13.5857C13.1287 13.5781 13.1219 13.5705 13.1152 13.5626L6.8643 6.2364C6.86098 6.23255 6.85761 6.2286 6.85437 6.22457C6.52982 5.82787 5.95863 5.31639 5.17244 5.31639C4.7869 5.31639 4.34942 5.43954 3.86425 5.75958C3.09192 6.2689 2.78964 7.513 2.89025 8.47857Z" fill="white"/>
</svg>
