<svg width="24" height="24" viewBox="0 0 24 24" fill="none" xmlns="http://www.w3.org/2000/svg">
    <path d="M20.7792 12.0388L19.8781 11.137C19.7928 11.0516 19.6883 10.9877 19.5734 10.9508C16.3332 9.90828 15.6346 9.64185 14.8713 9.11838C13.8237 8.39975 12.6301 8.03359 11.4465 8.12028C11.235 8.1357 11.0336 8.16327 10.8422 8.20219L7.06997 3.74341C6.24484 2.7456 4.62252 2.77163 3.69807 3.69726C2.77284 4.62245 2.74645 6.24492 3.75217 7.07453L8.19386 10.8334C7.93487 12.0433 8.23681 13.5404 8.99099 14.6888C9.60342 15.6219 9.99204 16.5877 10.9519 19.572C10.9888 19.6869 11.0526 19.7913 11.1379 19.8767L12.0398 20.7785C12.2872 21.0259 12.6716 21.0724 12.9708 20.8911C13.6541 20.4771 14.3112 20.0276 14.9424 19.5468C15.4889 19.9292 16.1441 20.1425 16.8333 20.1425C18.6616 20.1425 20.1437 18.6604 20.1437 16.8322C20.1437 16.1436 19.9308 15.4891 19.5491 14.943C19.6175 14.8538 19.685 14.7646 19.7515 14.6754C20.0846 14.228 20.3702 13.8114 20.6088 13.436C20.7545 13.2067 20.8536 13.0393 20.9064 12.9439C21.0705 12.6475 21.0186 12.2784 20.7792 12.0388ZM4.77293 4.7714C5.0936 4.45029 5.67505 4.44096 5.90444 4.71836L9.39382 8.8429C9.18683 9.00338 9.00388 9.18765 8.84525 9.39404L4.72648 5.90843C4.44214 5.6738 4.45157 5.09271 4.77293 4.7714ZM12.6867 19.2764L12.3422 18.9319C11.3817 15.9558 10.9589 14.9177 10.2613 13.8548C9.68814 12.9822 9.48048 11.8042 9.71813 10.9985C9.72743 10.9671 9.73733 10.9364 9.74751 10.906C9.75649 10.8874 9.76507 10.8684 9.77269 10.8486C9.97798 10.3179 10.3052 9.96804 10.8317 9.78057C10.8545 9.77245 10.8764 9.76308 10.8978 9.75314C11.0911 9.69324 11.3097 9.65378 11.5572 9.63576C12.3776 9.57568 13.2352 9.83876 14.0118 10.3714C14.934 11.0039 15.6702 11.2896 18.933 12.3409L19.282 12.6903C19.072 13.017 18.8222 13.379 18.5327 13.7679C18.3726 13.9829 18.2063 14.198 18.0343 14.4127L17.975 14.4859C16.9811 15.7143 15.8164 16.901 14.4871 17.9711L14.2986 18.1228C13.7799 18.5313 13.2428 18.917 12.6867 19.2764ZM18.6242 16.8321C18.6242 17.8212 17.8224 18.6229 16.8333 18.6229C16.6161 18.6229 16.4055 18.5839 16.209 18.5103C16.2469 18.477 16.2849 18.4439 16.3227 18.4104C17.1225 17.7003 17.8514 16.9601 18.5114 16.2076C18.5851 16.4041 18.6242 16.6148 18.6242 16.8321Z" fill="white"/>
</svg>
