<svg width="24" height="24" viewBox="0 0 24 24" fill="none" xmlns="http://www.w3.org/2000/svg">
    <path d="M11.25 17.4079C11.25 17.8221 11.5858 18.1579 12 18.1579C12.4142 18.1579 12.75 17.8221 12.75 17.4079H12H11.25ZM12 12.6711H12.75C12.75 12.4712 12.6702 12.2795 12.5283 12.1387L12 12.6711ZM8.65909 9.35526L8.16733 8.78899C8.00986 8.92574 7.91644 9.12188 7.90951 9.33032C7.90257 9.53876 7.98274 9.74068 8.13077 9.88759L8.65909 9.35526ZM12.4773 6.03947L13.0449 5.54926C12.9146 5.39845 12.7297 5.30567 12.531 5.2914C12.3322 5.27713 12.136 5.34254 11.9855 5.4732L12.4773 6.03947ZM18.2045 10.5789C18.6188 10.5789 18.9545 10.2432 18.9545 9.82895C18.9545 9.41473 18.6188 9.07895 18.2045 9.07895V9.82895V10.5789ZM9.13636 16.4605H8.38636C8.38636 18.1339 7.01804 19.5 5.31818 19.5V20.25V21C7.83577 21 9.88636 18.9729 9.88636 16.4605H9.13636ZM5.31818 20.25V19.5C3.61832 19.5 2.25 18.1339 2.25 16.4605H1.5H0.75C0.75 18.9729 2.80059 21 5.31818 21V20.25ZM1.5 16.4605H2.25C2.25 14.7872 3.61832 13.4211 5.31818 13.4211V12.6711V11.9211C2.80059 11.9211 0.75 13.9481 0.75 16.4605H1.5ZM5.31818 12.6711V13.4211C7.01804 13.4211 8.38636 14.7872 8.38636 16.4605H9.13636H9.88636C9.88636 13.9481 7.83577 11.9211 5.31818 11.9211V12.6711ZM12 17.4079H12.75V12.6711H12H11.25V17.4079H12ZM12 12.6711L12.5283 12.1387L9.18742 8.82294L8.65909 9.35526L8.13077 9.88759L11.4717 13.2034L12 12.6711ZM8.65909 9.35526L9.15086 9.92154L12.969 6.60575L12.4773 6.03947L11.9855 5.4732L8.16733 8.78899L8.65909 9.35526ZM12.4773 6.03947L11.9097 6.52969C12.3973 7.09432 13.2931 8.08411 14.3754 8.9376C15.4312 9.77025 16.7949 10.5789 18.2045 10.5789V9.82895V9.07895C17.3233 9.07895 16.3006 8.54554 15.3042 7.75977C14.3342 6.99484 13.5118 6.08989 13.0449 5.54926L12.4773 6.03947ZM22.5 16.4605H21.75C21.75 18.1339 20.3817 19.5 18.6818 19.5V20.25V21C21.1994 21 23.25 18.9729 23.25 16.4605H22.5ZM18.6818 20.25V19.5C16.982 19.5 15.6136 18.1339 15.6136 16.4605H14.8636H14.1136C14.1136 18.9729 16.1642 21 18.6818 21V20.25ZM14.8636 16.4605H15.6136C15.6136 14.7872 16.982 13.4211 18.6818 13.4211V12.6711V11.9211C16.1642 11.9211 14.1136 13.9481 14.1136 16.4605H14.8636ZM18.6818 12.6711V13.4211C20.3817 13.4211 21.75 14.7872 21.75 16.4605H22.5H23.25C23.25 13.9481 21.1994 11.9211 18.6818 11.9211V12.6711ZM16.7727 3.19737H16.0227C16.0227 3.30105 15.9365 3.39474 15.8182 3.39474V4.14474V4.89474C16.7542 4.89474 17.5227 4.14013 17.5227 3.19737H16.7727ZM15.8182 4.14474V3.39474C15.6999 3.39474 15.6136 3.30105 15.6136 3.19737H14.8636H14.1136C14.1136 4.14013 14.8821 4.89474 15.8182 4.89474V4.14474ZM14.8636 3.19737H15.6136C15.6136 3.09369 15.6999 3 15.8182 3V2.25V1.5C14.8821 1.5 14.1136 2.25461 14.1136 3.19737H14.8636ZM15.8182 2.25V3C15.9365 3 16.0227 3.09369 16.0227 3.19737H16.7727H17.5227C17.5227 2.25461 16.7542 1.5 15.8182 1.5V2.25Z" fill="white"/>
</svg>
