<svg width="225" height="19" viewBox="0 0 225 19" fill="none" xmlns="http://www.w3.org/2000/svg">
    <path d="M48.7927 3.62891C50.5434 3.62894 51.9408 4.07595 52.9841 4.97168C54.0274 5.84947 54.6016 7.04118 54.7078 8.5459H51.1531C51.0999 7.9549 50.8529 7.48875 50.4109 7.14844C49.9865 6.79019 49.4113 6.61133 48.6863 6.61133C48.0143 6.61134 47.4922 6.7365 47.1208 6.9873C46.7672 7.23812 46.5906 7.58828 46.5906 8.03613C46.5907 8.53759 46.8387 8.92273 47.3337 9.19141C47.8289 9.44219 48.5981 9.70201 49.6414 9.9707C50.7023 10.2394 51.5777 10.5171 52.2673 10.8037C52.957 11.0903 53.5495 11.5384 54.0447 12.1475C54.5575 12.7387 54.8229 13.5273 54.8406 14.5127C54.8405 15.3724 54.6021 16.1426 54.1248 16.8232C53.6649 17.504 52.9924 18.0414 52.1082 18.4355C51.2416 18.8118 50.2245 19 49.0574 19C47.855 19 46.7759 18.7854 45.821 18.3555C44.8662 17.9076 44.1057 17.3071 43.5398 16.5547C42.9917 15.8023 42.6915 14.9692 42.6384 14.0557H46.3787C46.4494 14.6289 46.7236 15.1033 47.2009 15.4795C47.696 15.8557 48.306 16.0439 49.031 16.0439C49.7382 16.0439 50.2865 15.9008 50.6755 15.6143C51.0822 15.3277 51.2858 14.9605 51.2859 14.5127C51.2859 14.0291 51.0387 13.6704 50.5437 13.4375C50.0662 13.1867 49.2962 12.9175 48.2351 12.6309C47.1389 12.3622 46.2373 12.0844 45.53 11.7979C44.8403 11.5112 44.2382 11.0727 43.7253 10.4814C43.2303 9.8903 42.9832 9.09291 42.9832 8.08984C42.9832 7.26571 43.2128 6.51284 43.6726 5.83203C44.1501 5.15122 44.8226 4.61388 45.6892 4.21973C46.5734 3.82567 47.608 3.62891 48.7927 3.62891ZM82.9304 3.62891C84.0268 3.62892 84.9822 3.85192 85.7957 4.2998C86.6268 4.74768 87.2898 5.31242 87.7849 5.99316V3.87012H91.5251V18.7588H87.7849V16.582C87.3075 17.2805 86.6442 17.8624 85.7957 18.3281C84.9645 18.776 84.0004 19 82.9041 19C81.6662 19 80.5342 18.678 79.5085 18.0332C78.5005 17.3882 77.6958 16.4829 77.0945 15.3184C76.5109 14.136 76.2185 12.7835 76.2185 11.2607C76.2185 9.75591 76.511 8.42132 77.0945 7.25684C77.6958 6.0923 78.5005 5.19639 79.5085 4.56934C80.5343 3.9423 81.6748 3.62891 82.9304 3.62891ZM111.302 3.62891C112.699 3.62891 113.946 3.93296 115.043 4.54199C116.157 5.15105 117.015 6.01996 117.616 7.14844C118.235 8.25923 118.545 9.54099 118.545 10.9922C118.545 11.5295 118.509 12.0135 118.438 12.4434H107.695C107.784 13.5181 108.155 14.3597 108.809 14.9688C109.464 15.5779 110.268 15.8828 111.223 15.8828C112.603 15.8827 113.584 15.2823 114.168 14.082H118.174C117.749 15.5152 116.936 16.6983 115.733 17.6299C114.531 18.5436 113.053 19 111.302 19C109.888 19 108.615 18.6865 107.483 18.0596C106.369 17.4146 105.493 16.5102 104.856 15.3457C104.237 14.1812 103.928 12.8373 103.928 11.3145C103.928 9.77387 104.237 8.42128 104.856 7.25684C105.475 6.09244 106.342 5.19638 107.456 4.56934C108.57 3.9423 109.852 3.62893 111.302 3.62891ZM29.4773 12.0674C29.4773 13.2497 29.7697 14.1637 30.3533 14.8086C30.9369 15.4355 31.733 15.749 32.741 15.749C33.7665 15.749 34.3772 15.3828 34.9607 14.7559C35.5443 14.1109 36.03 13.2497 36.03 12.0674V3.87109H39.7703V18.7588H36.03V16.8779C35.5526 17.5228 34.9243 18.033 34.1462 18.4092C33.3859 18.7674 32.5549 18.9473 31.6531 18.9473C30.5036 18.9473 29.4865 18.7054 28.6023 18.2217C27.7181 17.7201 27.0194 16.9943 26.5066 16.0449C26.0114 15.0775 25.7644 13.9303 25.7644 12.6045V3.87109H29.4773V12.0674ZM98.9226 2.76758C98.9226 3.37632 99.4164 3.86994 100.025 3.87012H102.213V6.96094H98.9226V14.1631C98.9226 14.6647 99.0384 15.0318 99.2683 15.2646C99.5159 15.4795 99.9223 15.5869 100.488 15.5869H102.213V18.7588H99.8777C96.7477 18.7587 95.7351 17.2172 95.7351 14.1357V6.96094H92.8796V3.87012H95.7351V0.188477H98.9226V2.76758ZM9.74585 0C11.1781 5.3162e-05 12.399 0.251335 13.407 0.75293C14.4146 1.25449 15.1668 1.94373 15.6619 2.82129C16.1746 3.6991 16.4314 4.69402 16.4314 5.80469C16.4314 6.80791 16.192 7.74912 15.7146 8.62695C15.2548 9.50451 14.5211 10.2126 13.5134 10.75C12.5232 11.2874 11.2666 11.5556 9.74585 11.5557H6.64233V18.7578H2.92847V11.5605C1.92967 11.5605 0.891104 11.5605 0.123779 11.5605C-0.00293134 11.5605 -0.0480752 11.3311 0.0632324 11.2705C1.53079 10.472 2.77967 8.74533 2.92847 8.53516V2.20508C2.92847 0.987373 3.91584 0 5.13354 0H9.74585ZM22.2273 18.7578H18.5134V0.00292969H22.2273V18.7578ZM64.6326 0C66.5776 2.9135e-05 68.284 0.385082 69.7517 1.15527C71.2373 1.92566 72.3787 3.02766 73.1746 4.46094C73.9881 5.87629 74.3943 7.52509 74.3943 9.40625C74.3942 11.2872 73.9879 12.9354 73.1746 14.3506C72.3787 15.748 71.2373 16.8322 69.7517 17.6025C68.284 18.3728 66.5777 18.7578 64.6326 18.7578H58.1599V1.10254C58.1599 0.493686 58.6536 0 59.2625 0H64.6326ZM155.547 4.91504C159.36 4.91516 161.767 7.52818 161.767 11.5645V12.666H152.735V12.8887C152.735 14.783 153.921 16.084 155.742 16.084C157.05 16.084 158.052 15.4273 158.382 14.4121H161.657C161.266 17.0122 158.919 18.7578 155.68 18.7578C151.648 18.7577 149.228 16.1452 149.228 11.8984C149.228 7.66407 151.673 4.91504 155.547 4.91504ZM194.74 13.001C194.74 14.7713 195.608 15.7119 197.184 15.7119C198.773 15.7119 199.763 14.5608 199.763 12.8027V5.2002H203.332V18.4736H199.885V16.084H199.812C199.164 17.7553 197.868 18.7207 195.888 18.7207C193.053 18.7205 191.172 16.8511 191.172 13.7559V5.2002H194.74V13.001ZM133.035 0.606445C136.652 0.606536 139.145 3.0464 139.145 6.72363C139.145 10.3883 136.566 12.8398 132.851 12.8398H129.552V18.4736H125.861V0.606445H133.035ZM147.664 4.98926C148.079 4.98928 148.434 5.0517 148.678 5.12598V8.30762C148.385 8.18381 147.896 8.09766 147.383 8.09766C145.623 8.09766 144.596 9.18706 144.596 11.0566V18.4736H141.027V5.2002H144.473V7.58984H144.548C145.012 5.90604 146.124 4.98926 147.664 4.98926ZM178.669 4.95215C181.235 4.95215 182.959 6.73575 182.959 9.41016V18.4736H179.39V10.3135C179.39 8.77848 178.632 7.93665 177.252 7.93652C175.895 7.93652 175.003 8.93969 175.003 10.4131V18.4736H171.568V10.2021C171.568 8.7784 170.774 7.93652 169.454 7.93652C168.098 7.9367 167.182 8.97651 167.181 10.4619V18.4736H163.612V5.2002H167.058V7.60254H167.133C167.683 6.00534 169.088 4.95217 170.872 4.95215C172.766 4.95215 174.086 5.94335 174.526 7.67676H174.599C175.186 6.00536 176.75 4.95229 178.669 4.95215ZM188.849 18.4736H185.281V5.2002H188.849V18.4736ZM220.711 4.95215C223.277 4.95229 225 6.73586 225 9.41016V18.4736H221.431V10.3135C221.431 8.77837 220.674 7.93653 219.293 7.93652C217.936 7.93652 217.044 8.93969 217.044 10.4131V18.4736H213.61V10.2021C213.61 8.77852 212.815 7.93667 211.496 7.93652C210.139 7.93652 209.223 8.97638 209.222 10.4619V18.4736H205.654V5.2002H209.1V7.60254H209.174C209.724 6.00543 211.129 4.95228 212.913 4.95215C214.807 4.95215 216.127 5.94335 216.567 7.67676H216.64C217.227 6.00526 218.792 4.95215 220.711 4.95215ZM83.8855 6.93359C83.1958 6.93359 82.5589 7.10397 81.9753 7.44434C81.3918 7.78472 80.9141 8.2864 80.5427 8.94922C80.189 9.59419 80.0125 10.3649 80.0125 11.2607C80.0125 12.1565 80.189 12.9452 80.5427 13.626C80.9141 14.2887 81.3918 14.799 81.9753 15.1572C82.5766 15.5155 83.2135 15.6953 83.8855 15.6953C84.5751 15.6953 85.2208 15.5249 85.822 15.1846C86.4233 14.8263 86.9009 14.3246 87.2546 13.6797C87.6083 13.0168 87.7849 12.2281 87.7849 11.3145C87.7849 10.4009 87.6082 9.62148 87.2546 8.97656C86.901 8.31378 86.4232 7.81208 85.822 7.47168C85.2208 7.1134 84.5751 6.93363 83.8855 6.93359ZM61.8738 15.5596H64.4998C66.4451 15.5596 67.9484 15.0222 69.0095 13.9473C70.0704 12.8724 70.6012 11.3588 70.6013 9.40625C70.6013 7.45341 70.0706 5.92979 69.0095 4.83691C67.9484 3.72623 66.445 3.17091 64.4998 3.1709H61.8738V15.5596ZM155.583 7.58984C154.019 7.58998 152.894 8.79117 152.772 10.4502H158.333C158.259 8.75393 157.172 7.58984 155.583 7.58984ZM129.552 9.91797H132.045C134.159 9.91797 135.393 8.7783 135.393 6.73535C135.393 4.70502 134.171 3.56556 132.057 3.56543H129.552V9.91797ZM111.197 6.71875C110.277 6.71875 109.499 7.00579 108.862 7.5791C108.243 8.13449 107.863 8.91377 107.721 9.91699H114.698C114.68 8.94953 114.336 8.17878 113.664 7.60547C112.992 7.01435 112.169 6.71885 111.197 6.71875ZM6.64233 8.51953H9.58667C10.612 8.51946 11.3728 8.28592 11.8679 7.82031C12.3629 7.3366 12.6111 6.66452 12.6111 5.80469C12.6111 3.97745 11.6024 3.06361 9.58667 3.06348H6.64233V8.51953ZM187.065 0C188.14 3.37273e-05 188.971 0.81696 188.971 1.86914C188.971 2.90917 188.141 3.73922 187.065 3.73926C185.99 3.73926 185.159 2.90919 185.159 1.86914C185.159 0.816938 185.99 0 187.065 0Z" fill="url(#paint0_linear_3981_7009)"/>
    <defs>
        <linearGradient id="paint0_linear_3981_7009" x1="50.4998" y1="-10.665" x2="223.637" y2="-23.4846" gradientUnits="userSpaceOnUse">
            <stop stop-color="#FFDFDF"/>
            <stop offset="1" stop-color="#FF779F"/>
        </linearGradient>
    </defs>
</svg>
