<svg width="40" height="40" viewBox="0 0 40 40" fill="none" xmlns="http://www.w3.org/2000/svg">
    <path d="M20 9.5C25.799 9.5 30.5 14.201 30.5 20C30.5 25.799 25.799 30.5 20 30.5C18.4735 30.5 17.0267 30.1749 15.7217 29.5918L15.4629 29.4717L15.2783 29.3926C14.9029 29.2468 14.4858 29.1848 14.0615 29.2344L13.8496 29.2686L9.92676 30.0723L10.7314 26.1504C10.8478 25.583 10.759 25.0177 10.5283 24.5371C9.86996 23.1656 9.5 21.6282 9.5 20C9.5 14.201 14.201 9.5 20 9.5Z" stroke="white" stroke-opacity="0.5" stroke-width="3" stroke-linecap="round" stroke-linejoin="round"/>
    <path d="M15.5098 18.5C16.3382 18.5 17.0098 19.1716 17.0098 20V20.0098C17.0098 20.8382 16.3382 21.5098 15.5098 21.5098H15.5C14.6716 21.5098 14 20.8382 14 20.0098V20C14 19.1716 14.6716 18.5 15.5 18.5H15.5098ZM20.0098 18.5C20.8382 18.5 21.5098 19.1716 21.5098 20V20.0098C21.5098 20.8382 20.8382 21.5098 20.0098 21.5098H20C19.1716 21.5098 18.5 20.8382 18.5 20.0098V20C18.5 19.1716 19.1716 18.5 20 18.5H20.0098ZM24.5098 18.5C25.3382 18.5 26.0098 19.1716 26.0098 20V20.0098C26.0098 20.8382 25.3382 21.5098 24.5098 21.5098H24.5C23.6716 21.5098 23 20.8382 23 20.0098V20C23 19.1716 23.6716 18.5 24.5 18.5H24.5098Z" fill="white" fill-opacity="0.5"/>
</svg>
