<svg width="40" height="40" viewBox="0 0 40 40" fill="none" xmlns="http://www.w3.org/2000/svg">
    <path d="M26.9555 29.7764C25.2466 27.8677 22.7635 26.6667 20 26.6667C17.2365 26.6667 14.7532 27.8677 13.0443 29.7764M20 32C13.3726 32 8 26.6274 8 20C8 13.3726 13.3726 8 20 8C26.6274 8 32 13.3726 32 20C32 26.6274 26.6274 32 20 32ZM20 22.6667C17.7909 22.6667 16 20.8758 16 18.6667C16 16.4575 17.7909 14.6667 20 14.6667C22.2091 14.6667 24 16.4575 24 18.6667C24 20.8758 22.2091 22.6667 20 22.6667Z" stroke="#FFF" stroke-width="3" stroke-linecap="round" stroke-linejoin="round"/>
</svg>
