<svg width="40" height="40" viewBox="0 0 40 40" fill="none" xmlns="http://www.w3.org/2000/svg">
    <path d="M29.8938 10.7725C32.1027 10.7728 33.8938 12.5635 33.8938 14.7725V29.8896L33.8889 30.0957C33.7849 32.1405 32.1447 33.7808 30.0999 33.8848L29.8938 33.8896H21.7532L21.5471 33.8848C19.5022 33.781 17.8621 32.1406 17.7581 30.0957L17.7532 29.8896V29.8223L20.7532 29.0186V29.8896C20.7535 30.4417 21.2011 30.8896 21.7532 30.8896H29.8938C30.4456 30.8893 30.8935 30.4415 30.8938 29.8896V14.7725C30.8938 14.2204 30.4458 13.7728 29.8938 13.7725H23.0168L22.2131 10.7725H29.8938ZM16.8293 6.13672C18.9632 5.56503 21.1569 6.83198 21.7288 8.96582L25.6418 23.5674C26.2137 25.7011 24.9475 27.894 22.8137 28.4658L14.9504 30.5732C12.8166 31.1449 10.6229 29.878 10.051 27.7441L6.13794 13.1426C5.56609 11.0087 6.83219 8.81486 8.96606 8.24316L16.8293 6.13672Z" fill="white" fill-opacity="0.5"/>
</svg>
