<svg width="40" height="40" viewBox="0 0 40 40" fill="none" xmlns="http://www.w3.org/2000/svg">
    <path d="M29.8939 10.7725C32.1028 10.7728 33.8939 12.5635 33.8939 14.7725V29.8896L33.889 30.0957C33.785 32.1405 32.1448 33.7808 30.0999 33.8848L29.8939 33.8896H21.7533L21.5472 33.8848C19.5023 33.781 17.8622 32.1406 17.7581 30.0957L17.7533 29.8896V29.8223L20.7533 29.0186V29.8896C20.7536 30.4417 21.2012 30.8896 21.7533 30.8896H29.8939C30.4457 30.8893 30.8936 30.4415 30.8939 29.8896V14.7725C30.8939 14.2204 30.4459 13.7728 29.8939 13.7725H23.0169L22.2132 10.7725H29.8939ZM16.8294 6.13672C18.9633 5.56503 21.157 6.83198 21.7289 8.96582L25.6419 23.5674C26.2138 25.7011 24.9476 27.894 22.8138 28.4658L14.9505 30.5732C12.8166 31.1449 10.623 29.878 10.0511 27.7441L6.13803 13.1426C5.56618 11.0087 6.83228 8.81486 8.96616 8.24316L16.8294 6.13672Z" fill="#FFF"/>
</svg>
