<svg width="32" height="32" viewBox="0 0 32 32" fill="none" xmlns="http://www.w3.org/2000/svg">
    <path d="M0 16C0 7.16344 7.16344 0 16 0C24.8366 0 32 7.16344 32 16C32 24.8366 24.8366 32 16 32C7.16344 32 0 24.8366 0 16Z" fill="white" fill-opacity="0.2"/>
    <path d="M25 23.9999C25 22.2583 23.3304 20.7767 21 20.2275M19 24C19 21.7909 16.3137 20 13 20C9.68629 20 7 21.7909 7 24M19 17C21.2091 17 23 15.2091 23 13C23 10.7909 21.2091 9 19 9M13 17C10.7909 17 9 15.2091 9 13C9 10.7909 10.7909 9 13 9C15.2091 9 17 10.7909 17 13C17 15.2091 15.2091 17 13 17Z" stroke="white" stroke-width="2" stroke-linecap="round" stroke-linejoin="round"/>
</svg>
