<svg width="32" height="32" viewBox="0 0 32 32" fill="none" xmlns="http://www.w3.org/2000/svg">
    <rect width="32" height="32" rx="16" fill="white" fill-opacity="0.2"/>
    <g clip-path="url(#clip0_5314_11212)">
        <path d="M14.7302 9.07319C15.1449 9.02485 15.5685 9 16 9C20.664 9 24.3999 11.9026 26 16C25.6054 17.0104 25.0809 17.9482 24.4447 18.7877M10.5196 10.5194C8.47955 11.7641 6.90111 13.6926 6 16C7.60014 20.0974 11.336 23 16 23C18.0376 23 19.898 22.446 21.4806 21.4804M13.8788 13.8786C13.3358 14.4215 13 15.1715 13 16C13 17.6569 14.3431 19 16 19C16.8285 19 17.5785 18.6642 18.1214 18.1212" stroke="white" stroke-width="2" stroke-linecap="round" stroke-linejoin="round"/>
        <path d="M8 8L24 24" stroke="white" stroke-width="2" stroke-linecap="round"/>
    </g>
    <defs>
        <clipPath id="clip0_5314_11212">
            <rect width="24" height="24" fill="white" transform="translate(4 4)"/>
        </clipPath>
    </defs>
</svg>
