<svg width="32" height="32" viewBox="0 0 32 32" fill="none" xmlns="http://www.w3.org/2000/svg">
    <circle cx="16" cy="16" r="16" fill="white" fill-opacity="0.2"/>
    <path d="M16 8C20.4183 8 24 11.5817 24 16C24 20.4183 20.4183 24 16 24C14.9147 24 13.8819 23.7846 12.9404 23.3945L12.543 23.2168L12.4141 23.1611C12.1503 23.0586 11.8577 23.0151 11.5605 23.0498L11.4121 23.0732L8.28418 23.7148L8.92676 20.5879C9.00819 20.191 8.94524 19.7946 8.7832 19.457C8.28152 18.4119 8 17.2402 8 16C8 11.5817 11.5817 8 16 8Z" stroke="white" stroke-width="2" stroke-linecap="round" stroke-linejoin="round"/>
    <path fill-rule="evenodd" clip-rule="evenodd" d="M12.6328 15C13.185 15.0002 13.6328 15.4478 13.6328 16V16.0078C13.6326 16.5598 13.1848 17.0076 12.6328 17.0078H12.625C12.0728 17.0078 11.6252 16.56 11.625 16.0078V16C11.625 15.4477 12.0727 15 12.625 15H12.6328ZM16.0078 15C16.56 15.0002 17.0078 15.4478 17.0078 16V16.0078C17.0076 16.5598 16.5598 17.0076 16.0078 17.0078H16C15.4478 17.0078 15.0002 16.56 15 16.0078V16C15 15.4477 15.4477 15 16 15H16.0078ZM19.3828 15C19.935 15.0002 20.3828 15.4478 20.3828 16V16.0078C20.3826 16.5598 19.9348 17.0076 19.3828 17.0078H19.375C18.8228 17.0078 18.3752 16.56 18.375 16.0078V16C18.375 15.4477 18.8227 15 19.375 15H19.3828Z" fill="white"/>
</svg>
