<svg width="80" height="80" viewBox="0 0 80 80" fill="none" xmlns="http://www.w3.org/2000/svg">
    <g clip-path="url(#clip0_1774_3083)">
        <rect width="80" height="80" rx="40" fill="url(#paint0_linear_1774_3083)"/>
        <g clip-path="url(#clip1_1774_3083)">
            <path d="M39.6715 21.8887C39.9881 21.167 41.0119 21.167 41.3285 21.8887L45.93 32.378C46.058 32.6699 46.3303 32.8729 46.6466 32.9123L57.6305 34.2816C58.3835 34.3755 58.6934 35.299 58.1493 35.8281L49.9686 43.7827C49.7509 43.9944 49.6539 44.3011 49.7103 44.5994L51.8725 56.041C52.0168 56.8048 51.1944 57.383 50.5245 56.9888L40.9589 51.3588C40.6757 51.1921 40.3243 51.1921 40.0411 51.3588L30.4755 56.9888C29.8056 57.383 28.9832 56.8048 29.1275 56.041L31.2897 44.5994C31.3461 44.3011 31.2491 43.9944 31.0314 43.7827L22.8507 35.8281C22.3066 35.299 22.6165 34.3755 23.3695 34.2816L34.3534 32.9123C34.6697 32.8729 34.942 32.6699 35.07 32.378L39.6715 21.8887Z" fill="white"/>
        </g>
    </g>
    <defs>
        <linearGradient id="paint0_linear_1774_3083" x1="23.1339" y1="-18.4615" x2="46.369" y2="114.129" gradientUnits="userSpaceOnUse">
            <stop stop-color="#FEAC47"/>
            <stop offset="1" stop-color="#E25F27"/>
        </linearGradient>
        <clipPath id="clip0_1774_3083">
            <rect width="80" height="80" fill="white"/>
        </clipPath>
        <clipPath id="clip1_1774_3083">
            <rect width="48" height="48" fill="white" transform="matrix(-1 0 0 1 64 17)"/>
        </clipPath>
    </defs>
</svg>
