<svg width="80" height="80" viewBox="0 0 80 80" fill="none" xmlns="http://www.w3.org/2000/svg">
    <g clip-path="url(#clip0_1774_3083)">
        <path d="M0 40C0 17.9086 17.9086 0 40 0C62.0914 0 80 17.9086 80 40C80 62.0914 62.0914 80 40 80C17.9086 80 0 62.0914 0 40Z" fill="url(#paint0_linear_1774_3083)"/>
        <g clip-path="url(#clip1_1774_3083)">
            <path d="M38.6685 24.1751C39.3683 22.5797 41.6317 22.5797 42.3315 24.1751L45.68 31.8081C45.9631 32.4534 46.5648 32.9021 47.2641 32.9893L55.3673 33.9995C57.032 34.207 57.7169 36.2485 56.5142 37.418L50.3905 43.3724C49.9094 43.8403 49.6949 44.5182 49.8196 45.1777L51.4243 53.6696C51.7434 55.358 49.9254 56.6362 48.4446 55.7646L41.5145 51.6858C40.8884 51.3173 40.1117 51.3173 39.4855 51.6858L32.5554 55.7646C31.0746 56.6362 29.2566 55.358 29.5757 53.6696L31.1804 45.1777C31.3051 44.5182 31.0906 43.8403 30.6095 43.3724L24.4858 37.418C23.2831 36.2485 23.968 34.207 25.6327 33.9995L33.7359 32.9893C34.4352 32.9021 35.0369 32.4534 35.32 31.8081L38.6685 24.1751Z" fill="white"/>
        </g>
    </g>
    <defs>
        <linearGradient id="paint0_linear_1774_3083" x1="23.1339" y1="-18.4615" x2="76.6941" y2="3.35928" gradientUnits="userSpaceOnUse">
            <stop stop-color="#FE4773"/>
            <stop offset="1" stop-color="#E2273C"/>
        </linearGradient>
        <clipPath id="clip0_1774_3083">
            <rect width="80" height="80" fill="white"/>
        </clipPath>
        <clipPath id="clip1_1774_3083">
            <rect width="48" height="48" fill="white" transform="matrix(-1 0 0 1 64 17)"/>
        </clipPath>
    </defs>
</svg>
