<svg width="80" height="80" viewBox="0 0 80 80" fill="none" xmlns="http://www.w3.org/2000/svg">
    <path d="M33.6587 12.2739C37.9264 11.1306 42.3138 13.6636 43.4575 17.9312L44.4263 21.5444H59.7866C64.2046 21.5447 67.7864 25.1265 67.7866 29.5444V59.7788L67.7769 60.1899C67.5696 64.2804 64.2891 67.5605 60.1987 67.7681L59.7866 67.7788H43.5054L43.0933 67.7681C39.0028 67.5605 35.7234 64.2804 35.5161 60.1899L35.5054 59.7788V59.644L29.8999 61.146C25.6323 62.2892 21.2459 59.7571 20.1021 55.4897L12.2759 26.2856C11.1322 22.018 13.6644 17.6312 17.9321 16.4878L33.6587 12.2739ZM51.2837 47.1353C52.4274 51.4029 49.8942 55.7897 45.6265 56.9331L40.5054 58.3042V59.7788C40.5056 61.4355 41.8487 62.7788 43.5054 62.7788H59.7866C61.4431 62.7786 62.7864 61.4353 62.7866 59.7788V29.5444C62.7864 27.8879 61.4431 26.5447 59.7866 26.5444H45.7661L51.2837 47.1353Z" fill="white"/>
</svg>
