<svg width="40" height="40" viewBox="0 0 40 40" fill="none" xmlns="http://www.w3.org/2000/svg">
    <rect width="40" height="40" rx="20" fill="white" fill-opacity="0.2"/>
    <g clip-path="url(#clip0_4511_5528)">
        <path d="M31.2 26.7996H28V16.9993H31.2C31.8952 16.9993 32.5108 16.6056 32.7236 16.0273C32.936 15.4477 32.6956 14.8131 32.13 14.4603L20.93 7.46012C20.3736 7.1129 19.6268 7.1129 19.0708 7.46012L7.87081 14.4603C7.30521 14.8131 7.06441 15.4474 7.27721 16.0273C7.48921 16.6056 8.10481 16.9993 8.80001 16.9993H12V26.7996H8.80001C7.91561 26.7996 7.20001 27.4258 7.20001 28.1997V29.5997H32.8V28.1997C32.8 27.4258 32.0844 26.7996 31.2 26.7996ZM18.4 26.7996H15.2V16.9993H18.4V26.7996ZM24.8 26.7996H21.6V16.9993H24.8V26.7996Z" fill="white"/>
    </g>
    <defs>
        <clipPath id="clip0_4511_5528">
            <path d="M4 20C4 11.1634 11.1634 4 20 4C28.8366 4 36 11.1634 36 20C36 28.8366 28.8366 36 20 36C11.1634 36 4 28.8366 4 20Z" fill="white"/>
        </clipPath>
    </defs>
</svg>
