<svg width="80" height="80" viewBox="0 0 80 80" fill="none" xmlns="http://www.w3.org/2000/svg">
    <g clip-path="url(#clip0_4016_5952)">
        <path d="M41.1648 10.6675C49.2204 10.6675 50.2284 10.7032 53.3923 10.8472C56.5504 10.9918 58.7072 11.4915 60.5984 12.2251C62.5514 12.9822 64.2021 13.9958 65.8523 15.646C67.5023 17.2948 68.516 18.9499 69.2761 20.9009C70.0054 22.7872 70.5057 24.9438 70.6541 28.1021C70.7962 31.2661 70.8337 32.2779 70.8337 40.3345C70.8337 48.3909 70.7962 49.3998 70.6541 52.564C70.5057 55.7208 70.0053 57.8773 69.2761 59.7642C68.516 61.7146 67.5023 63.3702 65.8523 65.019C64.204 66.6692 62.5508 67.6851 60.6003 68.4429C58.7128 69.1765 56.5545 69.6772 53.3962 69.8218C50.2318 69.9658 49.2234 70.0005 41.1658 70.0005C33.1102 70.0005 32.0993 69.9658 28.9353 69.8218C25.7777 69.6772 23.6207 69.1765 21.7332 68.4429C19.7833 67.6852 18.1285 66.6691 16.4802 65.019C14.8307 63.3701 13.8167 61.7153 13.0583 59.7642C12.3254 57.8779 11.8257 55.722 11.6804 52.564C11.537 49.3996 11.5007 48.3911 11.5007 40.3345C11.5007 32.2776 11.5379 31.2654 11.6794 28.1011C11.8216 24.9442 12.322 22.7877 13.0574 20.9009C13.8175 18.9504 14.8311 17.2949 16.4812 15.646C18.1302 13.9964 19.7859 12.9828 21.7371 12.2251C23.6233 11.4915 25.7791 10.9918 28.9373 10.8472C32.101 10.7032 33.1125 10.6675 41.1648 10.6675ZM38.5085 16.0073C32.9794 16.0135 31.9181 16.0497 29.1814 16.1733C26.289 16.3062 24.7183 16.7889 23.6726 17.1968C22.2884 17.7357 21.2996 18.3784 20.2615 19.4165C19.2231 20.4548 18.5785 21.4442 18.0408 22.8286C17.6347 23.8744 17.1515 25.4443 17.0193 28.3364C16.8771 31.4638 16.8494 32.3986 16.8494 40.3208C16.8494 48.2429 16.8771 49.1827 17.0193 52.3101C17.151 55.2023 17.6347 56.7724 18.0408 57.8169C18.5797 59.2019 19.2232 60.1878 20.2615 61.2261C21.2997 62.2643 22.2884 62.9071 23.6726 63.4448C24.7189 63.8509 26.289 64.3347 29.1814 64.4683C32.3088 64.6104 33.2481 64.6411 41.1697 64.6411C49.0902 64.6411 50.0299 64.6104 53.157 64.4683C56.0495 64.336 57.6213 63.8537 58.6658 63.4458C60.0506 62.9081 61.0367 62.2653 62.075 61.2271C63.1132 60.1894 63.757 59.2032 64.2947 57.8188C64.7007 56.7743 65.1839 55.2044 65.3162 52.312C65.4583 49.1847 65.489 48.2448 65.489 40.3276C65.489 32.411 65.4583 31.4713 65.3162 28.3442C65.1845 25.452 64.7007 23.8819 64.2947 22.8374C63.7558 21.453 63.1132 20.4636 62.075 19.4253C61.0373 18.387 60.05 17.7442 58.6658 17.2065C57.62 16.8005 56.0495 16.3173 53.157 16.1851C50.0292 16.0429 49.0902 16.0142 41.1697 16.0142C40.1797 16.0142 39.2983 16.0129 38.5085 16.0142V16.0073ZM41.1677 25.0991C49.5812 25.0991 56.401 31.9201 56.4011 40.3335C56.4011 48.7471 49.5823 55.5659 41.1687 55.5659C32.7551 55.5659 25.9333 48.7471 25.9333 40.3335C25.9335 31.9204 32.7547 25.0997 41.1677 25.0991ZM41.1687 30.4448C35.7071 30.445 31.28 34.8718 31.28 40.3335C31.2802 45.7944 35.7072 50.222 41.1687 50.2222C46.6297 50.2222 51.0582 45.7945 51.0583 40.3335C51.0583 34.8717 46.6298 30.4448 41.1687 30.4448ZM57.0046 20.939C58.97 20.939 60.5652 22.5331 60.5652 24.4985C60.5652 26.464 58.9701 28.0581 57.0046 28.0581C55.0394 28.0579 53.4451 26.4638 53.4451 24.4985C53.4451 22.5327 55.0394 20.9402 57.0046 20.9399V20.939Z" fill="white"/>
    </g>
    <defs>
        <clipPath id="clip0_4016_5952">
            <rect width="80" height="80" fill="white" transform="matrix(-1 0 0 1 80 0)"/>
        </clipPath>
    </defs>
</svg>
