<svg width="40" height="40" viewBox="0 0 40 40" fill="none" xmlns="http://www.w3.org/2000/svg">
    <rect width="40" height="40" rx="20" fill="white" fill-opacity="0.2"/>
    <g clip-path="url(#clip0_4511_5554)">
        <path fill-rule="evenodd" clip-rule="evenodd" d="M6.66666 18.667H33.3333V24.0881C33.3335 25.2701 33.3335 26.2885 33.2239 27.1041C33.1063 27.9781 32.8413 28.8159 32.1617 29.4954C31.4823 30.175 30.6444 30.4399 29.7704 30.5575C28.9548 30.6671 27.9364 30.6671 26.7544 30.667H13.2455C12.0636 30.6671 11.0452 30.6671 10.2296 30.5575C9.35559 30.4399 8.51779 30.175 7.83825 29.4954C7.15869 28.8159 6.8937 27.9781 6.77619 27.1041C6.66654 26.2885 6.66659 25.2701 6.66666 24.0881V18.667ZM10.6667 22.667C10.6667 21.9306 11.2636 21.3337 12 21.3337H14.6667C15.403 21.3337 16 21.9306 16 22.667C16 23.4034 15.403 24.0003 14.6667 24.0003H12C11.2636 24.0003 10.6667 23.4034 10.6667 22.667ZM17.3333 22.667C17.3333 21.9306 17.9303 21.3337 18.6667 21.3337H21.3333C22.0697 21.3337 22.6667 21.9306 22.6667 22.667C22.6667 23.4034 22.0697 24.0003 21.3333 24.0003H18.6667C17.9303 24.0003 17.3333 23.4034 17.3333 22.667Z" fill="white"/>
        <path d="M33.3333 16.0002V15.9124C33.3335 14.7304 33.3335 13.712 33.2239 12.8964C33.1063 12.0224 32.8413 11.1846 32.1617 10.5051C31.4823 9.82553 30.6444 9.56054 29.7704 9.44303C28.9548 9.33338 27.9364 9.33343 26.7544 9.3335H13.2456C12.0636 9.33343 11.0452 9.33338 10.2296 9.44303C9.35559 9.56054 8.51779 9.82553 7.83825 10.5051C7.15869 11.1846 6.8937 12.0224 6.77619 12.8964C6.66654 13.712 6.66659 14.7304 6.66666 15.9124V16.0002L33.3333 16.0002Z" fill="white"/>
    </g>
    <defs>
        <clipPath id="clip0_4511_5554">
            <path d="M4 20C4 11.1634 11.1634 4 20 4C28.8366 4 36 11.1634 36 20C36 28.8366 28.8366 36 20 36C11.1634 36 4 28.8366 4 20Z" fill="white"/>
        </clipPath>
    </defs>
</svg>
