<svg width="24" height="24" viewBox="0 0 24 24" fill="none" xmlns="http://www.w3.org/2000/svg">
    <path d="M0 12C0 5.37258 5.37258 0 12 0C18.6274 0 24 5.37258 24 12C24 18.6274 18.6274 24 12 24C5.37258 24 0 18.6274 0 12Z" fill="white"/>
    <mask id="mask0_913_5799" style="mask-type:luminance" maskUnits="userSpaceOnUse" x="0" y="0" width="24" height="24">
        <path fill-rule="evenodd" clip-rule="evenodd" d="M0 12C0 5.37258 5.37258 0 12 0C18.6274 0 24 5.37258 24 12C24 18.6274 18.6274 24 12 24C5.37258 24 0 18.6274 0 12Z" fill="white"/>
    </mask>
    <g mask="url(#mask0_913_5799)">
        <path d="M11.9994 5.6001C13.7372 5.6001 13.9546 5.6081 14.6371 5.63916C15.3183 5.67036 15.7838 5.7778 16.1918 5.93604C16.6131 6.09937 16.9696 6.31831 17.3256 6.67432C17.6814 7.02998 17.8999 7.38726 18.0638 7.80811C18.2211 8.21493 18.3297 8.67978 18.3617 9.36084C18.3924 10.0435 18.3998 10.2623 18.3998 12.0005C18.3998 13.738 18.3923 13.9559 18.3617 14.6382C18.3297 15.3193 18.2212 15.7848 18.0638 16.1919C17.8999 16.6127 17.6815 16.97 17.3256 17.3257C16.9701 17.6816 16.6134 17.9005 16.1927 18.064C15.7855 18.2222 15.3194 18.3306 14.6381 18.3618C13.9555 18.3929 13.7375 18.3999 11.9994 18.3999C10.2617 18.3999 10.0433 18.3929 9.36072 18.3618C8.6797 18.3306 8.21414 18.2222 7.80701 18.064C7.38659 17.9005 7.02963 17.6815 6.67419 17.3257C6.31834 16.97 6.09951 16.6128 5.93591 16.1919C5.77778 15.785 5.67037 15.3195 5.63904 14.6382C5.60812 13.9558 5.59998 13.7381 5.59998 12.0005C5.59998 10.2623 5.60753 10.0435 5.63806 9.36084C5.66873 8.68005 5.77733 8.21506 5.93591 7.80811C6.09987 7.38741 6.31835 7.02997 6.67419 6.67432C7.02987 6.31851 7.38714 6.09949 7.80798 5.93604C8.21492 5.77777 8.68035 5.67036 9.36169 5.63916C10.0442 5.6081 10.2624 5.6001 11.9994 5.6001ZM11.4261 6.75244C10.2336 6.75378 10.0048 6.76093 9.41443 6.7876C8.79049 6.81626 8.45155 6.92031 8.22595 7.0083C7.92728 7.12457 7.71363 7.26379 7.48962 7.48779C7.26589 7.71159 7.12703 7.92481 7.01111 8.22314C6.92352 8.44872 6.81895 8.78775 6.79041 9.41162C6.75974 10.0863 6.75427 10.2885 6.75427 11.9976C6.75427 13.7062 6.75975 13.909 6.79041 14.5835C6.81881 15.2075 6.92351 15.5466 7.01111 15.772C7.12733 16.0706 7.26578 16.2835 7.48962 16.5073C7.71361 16.7313 7.92732 16.8698 8.22595 16.9858C8.45169 17.0734 8.79042 17.1777 9.41443 17.2065C10.0891 17.2372 10.2916 17.2437 12.0004 17.2437C13.7088 17.2437 13.912 17.2372 14.5863 17.2065C15.2102 17.178 15.5494 17.0738 15.7748 16.9858C16.0735 16.8699 16.2862 16.7312 16.5101 16.5073C16.7341 16.2835 16.8736 16.0706 16.9896 15.772C17.0772 15.5467 17.1808 15.208 17.2094 14.5845C17.24 13.9098 17.2474 13.7066 17.2474 11.9985C17.2474 10.2909 17.24 10.0881 17.2094 9.41357C17.181 8.78957 17.0772 8.45043 16.9896 8.2251C16.8734 7.92654 16.7341 7.71369 16.5101 7.48975C16.2863 7.26575 16.0734 7.12723 15.7748 7.01123C15.5492 6.92363 15.2103 6.81906 14.5863 6.79053C13.9118 6.75988 13.7088 6.75342 12.0004 6.75342C11.7868 6.75342 11.5965 6.75315 11.4261 6.75342V6.75244ZM12.0004 8.71338C13.8155 8.71338 15.2865 10.1854 15.2865 12.0005C15.2863 13.8154 13.8153 15.2856 12.0004 15.2856C10.1855 15.2855 8.71445 13.8153 8.71423 12.0005C8.71423 10.1855 10.1854 8.71349 12.0004 8.71338ZM12.0004 9.8667C10.8222 9.86683 9.86755 10.8223 9.86755 12.0005C9.86779 13.1784 10.8223 14.1332 12.0004 14.1333C13.1784 14.1333 14.1339 13.1784 14.1342 12.0005C14.1342 10.8222 13.1785 9.8667 12.0004 9.8667ZM15.4174 7.81592C15.841 7.81618 16.1847 8.15985 16.1849 8.5835C16.1849 9.00734 15.8411 9.35179 15.4174 9.35205C14.9934 9.35205 14.6488 9.0075 14.6488 8.5835C14.649 8.15956 14.9935 7.81592 15.4174 7.81592Z" fill="black"/>
    </g>
</svg>
