<svg width="24" height="24" viewBox="0 0 24 24" fill="none" xmlns="http://www.w3.org/2000/svg">
<g clip-path="url(#clip0_4961_3603)">
<path d="M4.50459 1.08751C3.74521 1.38282 3.10303 1.77657 2.46084 2.41876C1.81865 3.05626 1.4249 3.70313 1.12959 4.45782C0.843652 5.18907 0.651465 6.02813 0.595215 7.25626C0.538965 8.48438 0.524902 8.87813 0.524902 12.0094C0.524902 15.1406 0.538965 15.5344 0.595215 16.7625C0.651465 17.9906 0.84834 18.8297 1.12959 19.5609C1.4249 20.3203 1.81865 20.9625 2.46084 21.6047C3.10303 22.2469 3.74521 22.6406 4.50459 22.9359C5.23584 23.2219 6.0749 23.4141 7.30303 23.4703C8.53115 23.5266 8.9249 23.5406 12.0562 23.5406C15.1874 23.5406 15.5812 23.5266 16.8093 23.4703C18.0374 23.4141 18.8765 23.2172 19.6077 22.9359C20.3671 22.6406 21.0093 22.2469 21.6515 21.6047C22.2937 20.9625 22.6874 20.3203 22.9827 19.5609C23.2687 18.8297 23.4608 17.9906 23.5171 16.7625C23.5733 15.5344 23.5874 15.1406 23.5874 12.0094C23.5874 8.87813 23.5733 8.48438 23.5171 7.25626C23.4608 6.02813 23.264 5.18907 22.9827 4.45782C22.6874 3.70313 22.2937 3.05626 21.6562 2.41876C21.014 1.77657 20.3718 1.38282 19.6124 1.08751C18.8812 0.801569 18.0421 0.609381 16.814 0.553131C15.5858 0.496881 15.1921 0.482819 12.0608 0.482819C8.92959 0.482819 8.53584 0.496881 7.30771 0.553131C6.0749 0.604694 5.23584 0.801569 4.50459 1.08751ZM16.7155 2.62501C17.8405 2.67657 18.4499 2.86407 18.8577 3.02344C19.3968 3.23438 19.7812 3.48282 20.1843 3.88594C20.5874 4.28907 20.8358 4.67344 21.0468 5.21251C21.2062 5.62032 21.3937 6.22969 21.4452 7.35469C21.5015 8.56876 21.5108 8.93438 21.5108 12.0141C21.5108 15.0938 21.4968 15.4594 21.4452 16.6734C21.3937 17.7984 21.2062 18.4078 21.0468 18.8156C20.8358 19.3547 20.5874 19.7391 20.1843 20.1422C19.7812 20.5453 19.3968 20.7938 18.8577 21.0047C18.4499 21.1641 17.8405 21.3516 16.7155 21.4031C15.5015 21.4594 15.1358 21.4688 12.0562 21.4688C8.97647 21.4688 8.61084 21.4547 7.39678 21.4031C6.27178 21.3516 5.6624 21.1641 5.25459 21.0047C4.71553 20.7938 4.33115 20.5453 3.92803 20.1422C3.5249 19.7391 3.27646 19.3547 3.06553 18.8156C2.90615 18.4078 2.71865 17.7984 2.66709 16.6734C2.61084 15.4594 2.60146 15.0938 2.60146 12.0141C2.60146 8.93438 2.61553 8.56876 2.66709 7.35469C2.71865 6.22969 2.90615 5.62032 3.06553 5.21251C3.27646 4.67344 3.5249 4.28907 3.92803 3.88594C4.33115 3.48282 4.71553 3.23438 5.25459 3.02344C5.6624 2.86407 6.27178 2.67657 7.39678 2.62501C8.61084 2.56876 8.97647 2.55938 12.0562 2.55938C15.1358 2.55938 15.5015 2.56876 16.7155 2.62501Z" fill="url(#paint0_radial_4961_3603)"/>
<path d="M6.13574 12.0141C6.13574 15.2859 8.78887 17.9344 12.0561 17.9344C15.3232 17.9344 17.9764 15.2813 17.9764 12.0141C17.9764 8.74687 15.3279 6.09375 12.0561 6.09375C8.78418 6.09375 6.13574 8.74219 6.13574 12.0141ZM15.8998 12.0141C15.8998 14.1375 14.1795 15.8578 12.0561 15.8578C9.93262 15.8578 8.2123 14.1375 8.2123 12.0141C8.2123 9.89062 9.93262 8.17031 12.0561 8.17031C14.1795 8.17031 15.8998 9.89062 15.8998 12.0141Z" fill="url(#paint1_radial_4961_3603)"/>
<path d="M18.2156 7.24219C18.9793 7.24219 19.5984 6.62308 19.5984 5.85938C19.5984 5.09567 18.9793 4.47656 18.2156 4.47656C17.4519 4.47656 16.8328 5.09567 16.8328 5.85938C16.8328 6.62308 17.4519 7.24219 18.2156 7.24219Z" fill="#654C9F"/>
</g>
<defs>
<radialGradient id="paint0_radial_4961_3603" cx="0" cy="0" r="1" gradientUnits="userSpaceOnUse" gradientTransform="translate(0.944526 21.4296) rotate(-3.00009) scale(33.3428 28.3411)">
<stop stop-color="#FED576"/>
<stop offset="0.2634" stop-color="#F47133"/>
<stop offset="0.6091" stop-color="#BC3081"/>
<stop offset="1" stop-color="#4C63D2"/>
</radialGradient>
<radialGradient id="paint1_radial_4961_3603" cx="0" cy="0" r="1" gradientUnits="userSpaceOnUse" gradientTransform="translate(6.35049 16.8486) rotate(-3.00009) scale(17.122 14.5535)">
<stop stop-color="#FED576"/>
<stop offset="0.2634" stop-color="#F47133"/>
<stop offset="0.6091" stop-color="#BC3081"/>
<stop offset="1" stop-color="#4C63D2"/>
</radialGradient>
<clipPath id="clip0_4961_3603">
<rect width="24" height="24" fill="white"/>
</clipPath>
</defs>
</svg>
