<svg width="24" height="24" viewBox="0 0 24 24" fill="none" xmlns="http://www.w3.org/2000/svg">
    <circle cx="12" cy="12" r="10" fill="url(#paint0_linear_2972_5480)"/>
    <path d="M15.8457 15C16.2073 15.0002 16.5 15.3228 16.5 15.7207V15.7803C16.4999 16.1777 16.2073 16.4998 15.8457 16.5H8.1543C7.79291 16.4999 7.50008 16.1778 7.5 15.7803V15.7207C7.5 15.3227 7.79287 15 8.1543 15H15.8457ZM12 7.5C12.5792 7.5 13.0486 7.95455 13.0488 8.51562C13.0488 8.90648 12.8209 9.24598 12.4873 9.41602C12.5895 10.1927 12.892 11.1952 13.71 11.5459C14.6283 11.9388 15.8127 11.5041 16.4326 10.2598C16.2742 10.1011 16.1768 9.88489 16.1768 9.64648C16.1768 9.15871 16.5853 8.7627 17.0889 8.7627C17.5919 8.76289 18 9.15883 18 9.64648C17.9999 10.0958 17.6539 10.4664 17.2061 10.5225L16.1553 14.25H7.84473L6.79395 10.5225C6.34648 10.4664 6.00007 10.0958 6 9.64648C6 9.15871 6.40855 8.7627 6.91211 8.7627C7.41519 8.76281 7.82324 9.15878 7.82324 9.64648C7.8232 9.8849 7.72582 10.1011 7.56738 10.2598C8.18739 11.5043 9.37258 11.9392 10.291 11.5459C11.1088 11.1951 11.4105 10.1926 11.5127 9.41602C11.1791 9.24596 10.9512 8.90648 10.9512 8.51562C10.9514 7.95455 11.4212 7.5 12 7.5Z" fill="white"/>
    <path d="M15.8457 15C16.2073 15.0002 16.5 15.3228 16.5 15.7207V15.7803C16.4999 16.1777 16.2073 16.4998 15.8457 16.5H8.1543C7.79291 16.4999 7.50008 16.1778 7.5 15.7803V15.7207C7.5 15.3227 7.79287 15 8.1543 15H15.8457ZM12 7.5C12.5792 7.5 13.0486 7.95455 13.0488 8.51562C13.0488 8.90648 12.8209 9.24598 12.4873 9.41602C12.5895 10.1927 12.892 11.1952 13.71 11.5459C14.6283 11.9388 15.8127 11.5041 16.4326 10.2598C16.2742 10.1011 16.1768 9.88489 16.1768 9.64648C16.1768 9.15871 16.5853 8.7627 17.0889 8.7627C17.5919 8.76289 18 9.15883 18 9.64648C17.9999 10.0958 17.6539 10.4664 17.2061 10.5225L16.1553 14.25H7.84473L6.79395 10.5225C6.34648 10.4664 6.00007 10.0958 6 9.64648C6 9.15871 6.40855 8.7627 6.91211 8.7627C7.41519 8.76281 7.82324 9.15878 7.82324 9.64648C7.8232 9.8849 7.72582 10.1011 7.56738 10.2598C8.18739 11.5043 9.37258 11.9392 10.291 11.5459C11.1088 11.1951 11.4105 10.1926 11.5127 9.41602C11.1791 9.24596 10.9512 8.90648 10.9512 8.51562C10.9514 7.95455 11.4212 7.5 12 7.5Z" fill="white"/>
    <defs>
        <linearGradient id="paint0_linear_2972_5480" x1="7.78348" y1="-2.61538" x2="13.5922" y2="30.5324" gradientUnits="userSpaceOnUse">
            <stop stop-color="#FE4773"/>
            <stop offset="1" stop-color="#E2273C"/>
        </linearGradient>
    </defs>
</svg>
