<svg width="16" height="16" viewBox="0 0 16 16" fill="none" xmlns="http://www.w3.org/2000/svg">
    <path d="M3 6.07134C3 9.62554 6.03179 12.5647 7.37373 13.6916C7.56579 13.8529 7.66296 13.9345 7.80625 13.9758C7.91782 14.0081 8.08203 14.0081 8.1936 13.9758C8.33715 13.9344 8.43365 13.8536 8.62643 13.6917C9.96837 12.5648 13 9.62587 13 6.07166C13 4.72662 12.4732 3.4365 11.5356 2.48541C10.5979 1.53432 9.32618 1 8.00009 1C6.674 1 5.40216 1.5344 4.46447 2.48549C3.52679 3.43658 3 4.72629 3 6.07134Z" stroke="white" stroke-width="1.5" stroke-linecap="round" stroke-linejoin="round"/>
    <path d="M6.57145 5.3953C6.57145 6.20446 7.21105 6.8604 8.00003 6.8604C8.78901 6.8604 9.42861 6.20446 9.42861 5.3953C9.42861 4.58615 8.78901 3.9302 8.00003 3.9302C7.21105 3.9302 6.57145 4.58615 6.57145 5.3953Z" stroke="white" stroke-width="1.5" stroke-linecap="round" stroke-linejoin="round"/>
</svg>
