<svg width="16" height="16" viewBox="0 0 16 16" fill="none" xmlns="http://www.w3.org/2000/svg">
    <mask id="mask0_910_6280" style="mask-type:alpha" maskUnits="userSpaceOnUse" x="0" y="0" width="16" height="16">
        <rect width="16" height="16" fill="#D9D9D9"/>
    </mask>
    <g mask="url(#mask0_910_6280)">
        <path d="M6.66675 9.06686L10.6001 5.13353C10.7223 5.01131 10.8779 4.9502 11.0667 4.9502C11.2556 4.9502 11.4112 5.01131 11.5334 5.13353C11.6556 5.25575 11.7168 5.41131 11.7168 5.6002C11.7168 5.78908 11.6556 5.94464 11.5334 6.06686L7.13342 10.4669C7.00008 10.6002 6.84453 10.6669 6.66675 10.6669C6.48897 10.6669 6.33342 10.6002 6.20008 10.4669L4.46675 8.73353C4.34453 8.61131 4.28342 8.45575 4.28342 8.26686C4.28342 8.07797 4.34453 7.92242 4.46675 7.8002C4.58897 7.67797 4.74453 7.61686 4.93342 7.61686C5.12231 7.61686 5.27786 7.67797 5.40008 7.8002L6.66675 9.06686Z" fill="black"/>
    </g>
</svg>
