<svg width="104" height="112" viewBox="0 0 104 112" fill="none" xmlns="http://www.w3.org/2000/svg">
    <g opacity="0.6" filter="url(#filter0_d_914_8296)">
        <rect x="34" y="42" width="36" height="38" rx="18" fill="#EF3656"/>
    </g>
    <rect x="12" width="80" height="80" rx="40" fill="url(#paint0_linear_914_8296)"/>
    <path d="M39.7449 28.0021L51.9999 22.75L64.2549 28.0021C64.9597 28.3042 65.4166 28.9971 65.4166 29.7638V42.9096C65.4166 47.0365 63.2053 50.8469 59.6222 52.8944L51.9999 57.25L44.3777 52.8944C40.7945 50.8469 38.5833 47.0365 38.5833 42.9096V29.7638C38.5833 28.9971 39.0402 28.3042 39.7449 28.0021Z" stroke="white" stroke-width="3.83333" stroke-linejoin="round"/>
    <path d="M57.7499 36.1665L50.0832 43.8332L46.2499 39.9998" stroke="white" stroke-width="3.83333" stroke-linecap="round" stroke-linejoin="round"/>
    <defs>
        <filter id="filter0_d_914_8296" x="0" y="6" width="104" height="106" filterUnits="userSpaceOnUse" color-interpolation-filters="sRGB">
            <feFlood flood-opacity="0" result="BackgroundImageFix"/>
            <feColorMatrix in="SourceAlpha" type="matrix" values="0 0 0 0 0 0 0 0 0 0 0 0 0 0 0 0 0 0 127 0" result="hardAlpha"/>
            <feMorphology radius="5" operator="dilate" in="SourceAlpha" result="effect1_dropShadow_914_8296"/>
            <feOffset dy="-2"/>
            <feGaussianBlur stdDeviation="14.5"/>
            <feComposite in2="hardAlpha" operator="out"/>
            <feColorMatrix type="matrix" values="0 0 0 0 1 0 0 0 0 0.278431 0 0 0 0 0.47085 0 0 0 1 0"/>
            <feBlend mode="normal" in2="BackgroundImageFix" result="effect1_dropShadow_914_8296"/>
            <feBlend mode="normal" in="SourceGraphic" in2="effect1_dropShadow_914_8296" result="shape"/>
        </filter>
        <linearGradient id="paint0_linear_914_8296" x1="35.1339" y1="-18.4615" x2="88.6941" y2="3.35928" gradientUnits="userSpaceOnUse">
            <stop stop-color="#FE4773"/>
            <stop offset="1" stop-color="#E2273C"/>
        </linearGradient>
    </defs>
</svg>
