<svg width="24" height="24" viewBox="0 0 24 24" fill="none" xmlns="http://www.w3.org/2000/svg">
    <path d="M21.3705 7.7653C22.0468 8.4416 22.0473 9.53819 21.3712 10.2146C20.7885 10.7973 19.8948 10.8768 19.2257 10.4556L16.7633 13.4581L16.7729 17.1068C16.7755 18.2032 15.4497 18.7543 14.6744 17.979L11.3212 14.6258L5.78448 18.8422C5.37027 19.1573 4.84289 18.63 5.15817 18.2158L9.37526 12.6798L6.02133 9.32591C5.24599 8.55056 5.79705 7.22481 6.89348 7.22737L10.275 7.23497L13.4418 4.5847C13.1433 3.94365 13.2567 3.15813 13.7857 2.62911C14.4621 1.953 15.5587 1.95349 16.235 2.6298L21.3705 7.7653Z" fill="white"/>
</svg>
