<svg width="100" height="21" viewBox="0 0 100 21" fill="none" xmlns="http://www.w3.org/2000/svg">
    <rect x="-0.999512" y="8.29834" width="10.6417" height="15.6043" rx="5.32085" transform="rotate(-45 -0.999512 8.29834)" fill="url(#paint0_linear_4507_10962)"/>
    <path d="M17.2637 12.1573L12.2693 17.1517C11.0828 18.3381 9.16314 18.3504 7.96162 17.1793L6.14421 15.4079C4.33024 13.6398 4.28765 10.7378 6.04896 8.91725L13.8079 0.897461L17.2637 4.35318C19.4187 6.50822 19.4187 10.0022 17.2637 12.1573Z" fill="white"/>
    <path d="M25.281 12.156C25.1487 12.156 25.1049 11.8436 25.2273 11.7935C26.417 11.3066 27.3317 10.5708 27.3317 10.5708H30.3407V12.156C30.3407 12.156 27.2836 12.156 25.281 12.156Z" fill="url(#paint1_linear_4507_10962)"/>
    <path d="M28.22 16.9116C27.6454 16.9116 27.1797 16.4458 27.1797 15.8713V4.61841C27.1797 4.00558 27.6765 3.50879 28.2893 3.50879H32.1674C34.796 3.50879 36.6164 5.27354 36.6164 7.90208V7.92066C36.6164 10.5399 34.796 12.3325 32.1674 12.3325H29.2602V15.8713C29.2602 16.4458 28.7945 16.9116 28.22 16.9116ZM31.6473 5.26425H29.2602V10.5864H31.6473C33.4585 10.5864 34.4987 9.6111 34.4987 7.92995V7.91137C34.4987 6.2395 33.4585 5.26425 31.6473 5.26425Z" fill="url(#paint2_linear_4507_10962)"/>
    <path d="M38.2697 16.9116V4.51191C38.2697 3.9579 38.7188 3.50879 39.2729 3.50879C39.8269 3.50879 40.276 3.9579 40.276 4.51191V16.9116H38.2697Z" fill="url(#paint3_linear_4507_10962)"/>
    <path d="M45.6631 17.1066C43.5175 17.1066 42.2915 15.7227 42.2915 13.475V8.14358C42.2915 7.58957 42.7406 7.14046 43.2946 7.14046C43.8486 7.14046 44.2977 7.58957 44.2977 8.14358V13.0849C44.2977 14.5617 44.9851 15.379 46.3783 15.379C47.7901 15.379 48.7003 14.3666 48.7003 12.8434V8.14822C48.7003 7.59165 49.1515 7.14046 49.7081 7.14046C50.2647 7.14046 50.7159 7.59165 50.7159 8.14822V16.9116H48.7003V15.4441H48.6539C48.143 16.4286 47.1492 17.1066 45.6631 17.1066Z" fill="url(#paint4_linear_4507_10962)"/>
    <path d="M56.363 17.1066C53.9203 17.1066 52.4899 15.8992 52.2856 14.1159C52.2806 14.0713 52.3155 14.0323 52.3604 14.0323H54.1692C54.2243 14.0323 54.2717 14.0711 54.2825 14.1251C54.4683 15.0261 55.137 15.5555 56.3723 15.5555C57.5798 15.5555 58.3043 15.054 58.3043 14.2645V14.2552C58.3043 13.6236 57.9513 13.2613 56.9018 13.0106L55.3042 12.6483C53.4466 12.2211 52.527 11.3294 52.527 9.90832V9.89903C52.527 8.15286 54.0503 6.95469 56.298 6.95469C58.6108 6.95469 60.004 8.24574 60.1062 9.90832C60.1112 9.96832 60.0638 10.0198 60.0036 10.0198H58.2956C58.258 10.0198 58.226 9.99207 58.2207 9.95476C58.0999 9.10025 57.4312 8.50581 56.298 8.50581C55.2206 8.50581 54.5426 9.01666 54.5426 9.79687V9.80615C54.5426 10.4099 54.942 10.8186 55.9915 11.0693L57.5798 11.4316C59.5767 11.896 60.3384 12.6855 60.3384 14.088V14.0973C60.3384 15.8806 58.6665 17.1066 56.363 17.1066Z" fill="url(#paint5_linear_4507_10962)"/>
    <path d="M63.2499 16.9116C62.6371 16.9116 62.1403 16.4148 62.1403 15.802V4.61841C62.1403 4.00558 62.6371 3.50879 63.2499 3.50879H66.8679C70.8433 3.50879 73.2118 5.95157 73.2118 10.1684V10.187C73.2118 14.4224 70.8619 16.9116 66.8679 16.9116H63.2499ZM64.2208 15.1097H66.6729C69.5151 15.1097 71.0848 13.3728 71.0848 10.2055V10.187C71.0848 7.03829 69.4965 5.3014 66.6729 5.3014H64.2208V15.1097Z" fill="url(#paint6_linear_4507_10962)"/>
    <path d="M77.8094 17.0881C75.8589 17.0881 74.5492 15.8899 74.5492 14.1344V14.1159C74.5492 12.4161 75.8682 11.3759 78.1809 11.2365L80.8373 11.0786V10.3449C80.8373 9.26744 80.1407 8.61727 78.8961 8.61727C77.7351 8.61727 77.0199 9.16527 76.8527 9.94548C76.8419 9.99432 76.7985 10.0291 76.7485 10.0291H75.0419C74.9868 10.0291 74.9436 9.98176 74.9486 9.9269C75.088 8.24574 76.5462 6.95469 78.9518 6.95469C81.3389 6.95469 82.8528 8.21788 82.8528 10.1777V16.9116H80.8373V15.3698H80.8002C80.2336 16.4193 79.1004 17.0881 77.8094 17.0881ZM76.5741 14.088C76.5741 14.9425 77.28 15.4812 78.3574 15.4812C79.7692 15.4812 80.8373 14.5245 80.8373 13.2521V12.4904L78.4503 12.639C77.2428 12.7133 76.5741 13.2428 76.5741 14.0694V14.088Z" fill="url(#paint7_linear_4507_10962)"/>
    <path d="M88.2307 17.1066C86.2988 17.1066 85.3699 16.2893 85.3699 14.3388V8.73802H83.9674V7.14046H85.3699V4.5955H87.4226V6.50638C87.4226 6.85657 87.7065 7.14046 88.0567 7.14046H89.2524V8.73802H87.4226V14.218C87.4226 15.2119 87.8684 15.5091 88.7137 15.5091C88.9273 15.5091 89.1038 15.4905 89.2524 15.4719V17.023C89.0202 17.0602 88.6394 17.1066 88.2307 17.1066Z" fill="url(#paint8_linear_4507_10962)"/>
    <path d="M94.8438 17.1066C91.9738 17.1066 90.2369 15.1468 90.2369 12.0632V12.0539C90.2369 8.99809 92.0017 6.95469 94.7417 6.95469C97.4817 6.95469 99.1628 8.92378 99.1628 11.8588V12.5369H92.2432C92.2803 14.3852 93.2927 15.4626 94.8903 15.4626C96.0792 15.4626 96.8687 14.8496 97.1194 14.1159L97.1473 14.0415H99.0514L99.0328 14.1437C98.717 15.6948 97.2123 17.1066 94.8438 17.1066ZM94.751 8.59869C93.4506 8.59869 92.4475 9.48107 92.271 11.1158H97.1752C97.008 9.42534 96.0606 8.59869 94.751 8.59869Z" fill="url(#paint9_linear_4507_10962)"/>
    <defs>
        <linearGradient id="paint0_linear_4507_10962" x1="1.423" y1="11.1405" x2="9.27631" y2="15.6746" gradientUnits="userSpaceOnUse">
            <stop stop-color="white"/>
            <stop offset="1" stop-color="#979797"/>
        </linearGradient>
        <linearGradient id="paint1_linear_4507_10962" x1="24.4548" y1="12.156" x2="30.3407" y2="12.156" gradientUnits="userSpaceOnUse">
            <stop stop-color="#FFC8C3"/>
            <stop offset="1" stop-color="white"/>
        </linearGradient>
        <linearGradient id="paint2_linear_4507_10962" x1="24.7926" y1="10.5709" x2="28.7556" y2="10.5709" gradientUnits="userSpaceOnUse">
            <stop stop-color="#FFC8C3"/>
            <stop offset="1" stop-color="white"/>
        </linearGradient>
        <linearGradient id="paint3_linear_4507_10962" x1="24.7926" y1="10.5709" x2="28.7556" y2="10.5709" gradientUnits="userSpaceOnUse">
            <stop stop-color="#FFC8C3"/>
            <stop offset="1" stop-color="white"/>
        </linearGradient>
        <linearGradient id="paint4_linear_4507_10962" x1="24.7926" y1="10.5709" x2="28.7556" y2="10.5709" gradientUnits="userSpaceOnUse">
            <stop stop-color="#FFC8C3"/>
            <stop offset="1" stop-color="white"/>
        </linearGradient>
        <linearGradient id="paint5_linear_4507_10962" x1="24.7926" y1="10.5709" x2="28.7556" y2="10.5709" gradientUnits="userSpaceOnUse">
            <stop stop-color="#FFC8C3"/>
            <stop offset="1" stop-color="white"/>
        </linearGradient>
        <linearGradient id="paint6_linear_4507_10962" x1="24.7926" y1="10.5709" x2="28.7556" y2="10.5709" gradientUnits="userSpaceOnUse">
            <stop stop-color="#FFC8C3"/>
            <stop offset="1" stop-color="white"/>
        </linearGradient>
        <linearGradient id="paint7_linear_4507_10962" x1="24.7926" y1="10.5709" x2="28.7556" y2="10.5709" gradientUnits="userSpaceOnUse">
            <stop stop-color="#FFC8C3"/>
            <stop offset="1" stop-color="white"/>
        </linearGradient>
        <linearGradient id="paint8_linear_4507_10962" x1="24.7926" y1="10.5709" x2="28.7556" y2="10.5709" gradientUnits="userSpaceOnUse">
            <stop stop-color="#FFC8C3"/>
            <stop offset="1" stop-color="white"/>
        </linearGradient>
        <linearGradient id="paint9_linear_4507_10962" x1="24.7926" y1="10.5709" x2="28.7556" y2="10.5709" gradientUnits="userSpaceOnUse">
            <stop stop-color="#FFC8C3"/>
            <stop offset="1" stop-color="white"/>
        </linearGradient>
    </defs>
</svg>
