<svg width="24" height="24" viewBox="0 0 24 24" fill="none" xmlns="http://www.w3.org/2000/svg">
    <path d="M11.0842 5.08753C11.4342 4.28983 12.5658 4.28984 12.9158 5.08754L14.4417 8.56593C14.5832 8.88857 14.8841 9.11293 15.2337 9.15652L18.9337 9.61778C19.766 9.72155 20.1085 10.7423 19.5071 11.327L16.7053 14.0514C16.4647 14.2854 16.3575 14.6243 16.4198 14.9541L17.1531 18.8348C17.3127 19.679 16.4037 20.3181 15.6633 19.8823L12.5072 18.0248C12.1942 17.8405 11.8058 17.8405 11.4928 18.0248L8.3367 19.8823C7.5963 20.3181 6.68733 19.679 6.84686 18.8348L7.58022 14.9541C7.64253 14.6243 7.53531 14.2854 7.29474 14.0514L4.49292 11.327C3.89154 10.7423 4.23398 9.72155 5.06634 9.61778L8.76629 9.15652C9.11591 9.11293 9.4168 8.88857 9.55834 8.56592L11.0842 5.08753Z" stroke="white" stroke-width="2" stroke-linejoin="round"/>
</svg>
