<svg width="16" height="16" viewBox="0 0 16 16" fill="none" xmlns="http://www.w3.org/2000/svg">
    <path d="M0 8C0 3.58172 3.58172 0 8 0C12.4183 0 16 3.58172 16 8C16 12.4183 12.4183 16 8 16C3.58172 16 0 12.4183 0 8Z" fill="white"/>
    <mask id="mask0_6374_4859" style="mask-type:alpha" maskUnits="userSpaceOnUse" x="2" y="2" width="12" height="12">
        <rect x="2.6665" y="2.66666" width="10.6667" height="10.6667" fill="#D9D9D9"/>
    </mask>
    <g mask="url(#mask0_6374_4859)">
        <path d="M6.56502 9.32067L10.7982 5.19239C10.9297 5.06411 11.0972 4.99997 11.3004 4.99997C11.5037 4.99997 11.6712 5.06411 11.8027 5.19239C11.9342 5.32067 12 5.48393 12 5.68219C12 5.88044 11.9342 6.0437 11.8027 6.17198L7.06726 10.7901C6.92377 10.93 6.75635 11 6.56502 11C6.37369 11 6.20628 10.93 6.06278 10.7901L4.19731 8.97082C4.06577 8.84254 4 8.67927 4 8.48102C4 8.28277 4.06577 8.1195 4.19731 7.99122C4.32885 7.86294 4.49626 7.7988 4.69955 7.7988C4.90284 7.7988 5.07025 7.86294 5.20179 7.99122L6.56502 9.32067Z" fill="black"/>
    </g>
</svg>
