<svg width="104" height="112" viewBox="0 0 104 112" fill="none" xmlns="http://www.w3.org/2000/svg">
<g opacity="0.6" filter="url(#filter0_d_5087_8727)">
<rect x="34" y="42" width="36" height="38" rx="18" fill="#EF3656"/>
</g>
<path d="M12 40C12 17.9086 29.9086 0 52 0C74.0914 0 92 17.9086 92 40C92 62.0914 74.0914 80 52 80C29.9086 80 12 62.0914 12 40Z" fill="url(#paint0_linear_5087_8727)"/>
<path d="M41.3934 29.3934C38.6789 32.1079 37 35.8579 37 40C37 48.2843 43.7157 55 52 55C56.1421 55 59.8921 53.3211 62.6066 50.6066M41.3934 29.3934C44.1079 26.6789 47.8579 25 52 25C60.2843 25 67 31.7157 67 40C67 44.1421 65.3211 47.8921 62.6066 50.6066M41.3934 29.3934L62.6066 50.6066" stroke="white" stroke-width="3.5" stroke-linecap="round" stroke-linejoin="round"/>
<defs>
<filter id="filter0_d_5087_8727" x="0" y="6" width="104" height="106" filterUnits="userSpaceOnUse" color-interpolation-filters="sRGB">
<feFlood flood-opacity="0" result="BackgroundImageFix"/>
<feColorMatrix in="SourceAlpha" type="matrix" values="0 0 0 0 0 0 0 0 0 0 0 0 0 0 0 0 0 0 127 0" result="hardAlpha"/>
<feMorphology radius="5" operator="dilate" in="SourceAlpha" result="effect1_dropShadow_5087_8727"/>
<feOffset dy="-2"/>
<feGaussianBlur stdDeviation="14.5"/>
<feComposite in2="hardAlpha" operator="out"/>
<feColorMatrix type="matrix" values="0 0 0 0 1 0 0 0 0 0.278431 0 0 0 0 0.47085 0 0 0 1 0"/>
<feBlend mode="normal" in2="BackgroundImageFix" result="effect1_dropShadow_5087_8727"/>
<feBlend mode="normal" in="SourceGraphic" in2="effect1_dropShadow_5087_8727" result="shape"/>
</filter>
<linearGradient id="paint0_linear_5087_8727" x1="35.1339" y1="-18.4615" x2="83.1527" y2="4.18561" gradientUnits="userSpaceOnUse">
<stop stop-color="#F53658"/>
<stop offset="1" stop-color="#E52572"/>
</linearGradient>
</defs>
</svg>
