<svg width="16" height="16" viewBox="0 0 16 16" fill="none" xmlns="http://www.w3.org/2000/svg">
    <path d="M7.99951 2C9.73731 2 9.95477 2.00801 10.6372 2.03906C11.3184 2.07026 11.7839 2.17771 12.1919 2.33594C12.6132 2.49927 12.9697 2.71821 13.3257 3.07422C13.6815 3.42988 13.9 3.78716 14.064 4.20801C14.2212 4.61484 14.3298 5.07969 14.3618 5.76074C14.3925 6.44342 14.3999 6.66224 14.3999 8.40039C14.3999 10.1379 14.3925 10.3558 14.3618 11.0381C14.3298 11.7192 14.2213 12.1847 14.064 12.5918C13.9 13.0126 13.6816 13.3699 13.3257 13.7256C12.9702 14.0815 12.6135 14.3004 12.1929 14.4639C11.7857 14.6221 11.3195 14.7305 10.6382 14.7617C9.95563 14.7928 9.73767 14.7998 7.99951 14.7998C6.26185 14.7998 6.04346 14.7928 5.36084 14.7617C4.67982 14.7305 4.21426 14.6221 3.80713 14.4639C3.38671 14.3004 3.02975 14.0814 2.67432 13.7256C2.31846 13.3699 2.09963 13.0127 1.93604 12.5918C1.7779 12.1849 1.67049 11.7194 1.63916 11.0381C1.60824 10.3557 1.6001 10.138 1.6001 8.40039C1.6001 6.66224 1.60765 6.44342 1.63818 5.76074C1.66886 5.07996 1.77745 4.61496 1.93604 4.20801C2.1 3.78731 2.31847 3.42987 2.67432 3.07422C3.02999 2.71841 3.38726 2.4994 3.80811 2.33594C4.21504 2.17767 4.68048 2.07026 5.36182 2.03906C6.04429 2.008 6.2625 2 7.99951 2ZM7.42627 3.15234C6.23373 3.15368 6.00488 3.16084 5.41455 3.1875C4.79061 3.21616 4.45168 3.32021 4.22607 3.4082C3.9274 3.52447 3.71375 3.66369 3.48975 3.8877C3.26602 4.11149 3.12715 4.32471 3.01123 4.62305C2.92364 4.84862 2.81908 5.18765 2.79053 5.81152C2.75986 6.4862 2.75439 6.68838 2.75439 8.39746C2.7544 10.1061 2.75987 10.3089 2.79053 10.9834C2.81893 11.6074 2.92363 11.9465 3.01123 12.1719C3.12745 12.4705 3.26591 12.6834 3.48975 12.9072C3.71373 13.1312 3.92744 13.2697 4.22607 13.3857C4.45181 13.4733 4.79054 13.5776 5.41455 13.6064C6.08918 13.6371 6.29174 13.6436 8.00049 13.6436C9.70895 13.6436 9.91209 13.6371 10.5864 13.6064C11.2103 13.5779 11.5496 13.4737 11.7749 13.3857C12.0736 13.2698 12.2863 13.1311 12.5103 12.9072C12.7343 12.6834 12.8737 12.4705 12.9897 12.1719C13.0773 11.9466 13.1809 11.6079 13.2095 10.9844C13.2401 10.3097 13.2476 10.1065 13.2476 8.39844C13.2476 6.69076 13.2401 6.48803 13.2095 5.81348C13.1811 5.18947 13.0773 4.85034 12.9897 4.625C12.8735 4.32645 12.7342 4.1136 12.5103 3.88965C12.2864 3.66565 12.0736 3.52713 11.7749 3.41113C11.5493 3.32353 11.2104 3.21896 10.5864 3.19043C9.91195 3.15978 9.70896 3.15332 8.00049 3.15332C7.78697 3.15332 7.59662 3.15305 7.42627 3.15332V3.15234ZM8.00049 5.11328C9.81557 5.11328 11.2866 6.58531 11.2866 8.40039C11.2864 10.2153 9.81544 11.6855 8.00049 11.6855C6.18563 11.6854 4.71458 10.2152 4.71436 8.40039C4.71436 6.58537 6.1855 5.11339 8.00049 5.11328ZM8.00049 6.2666C6.82232 6.26673 5.86768 7.22219 5.86768 8.40039C5.86791 9.57826 6.82246 10.5331 8.00049 10.5332C9.17849 10.5332 10.134 9.57834 10.1343 8.40039C10.1343 7.22211 9.17863 6.2666 8.00049 6.2666ZM11.4175 4.21582C11.8411 4.21608 12.1848 4.55975 12.1851 4.9834C12.1851 5.40724 11.8413 5.75169 11.4175 5.75195C10.9935 5.75195 10.6489 5.4074 10.6489 4.9834C10.6492 4.55946 10.9936 4.21582 11.4175 4.21582Z" fill="white"/>
</svg>
