<svg width="24" height="24" viewBox="0 0 24 24" fill="none" xmlns="http://www.w3.org/2000/svg">
    <path d="M12.3486 1.00586C13.1596 1.03115 13.9498 1.14366 14.709 1.33594C15.5209 1.54167 15.9261 2.23775 16.0537 2.79004C16.1746 3.31343 16.5011 3.78315 17 4.07129C17.4576 4.33543 17.9746 4.39727 18.4541 4.28418C18.9711 4.1623 19.7073 4.20286 20.2451 4.73047L20.3496 4.84277L20.6719 5.2373C21.4031 6.17381 21.9863 7.23231 22.3857 8.37793C22.6977 9.2731 22.2105 10.0604 21.7285 10.458C21.282 10.8263 21 11.3796 21 12C21 12.62 21.2819 13.1728 21.7285 13.541C22.2107 13.9386 22.6978 14.7259 22.3857 15.6211C21.929 16.931 21.2322 18.1265 20.3486 19.1562C19.8051 19.7896 19.0045 19.8456 18.4531 19.7158C17.974 19.6031 17.4577 19.6645 17 19.9287C16.5011 20.2169 16.1746 20.686 16.0537 21.209C15.9261 21.7613 15.5207 22.4572 14.709 22.6631C13.9503 22.8555 13.1606 22.9687 12.3496 22.9941L12 23C11.0657 23 10.1571 22.8832 9.28906 22.6631C8.47765 22.4573 8.0729 21.7616 7.94531 21.209C7.83968 20.751 7.57642 20.3346 7.17871 20.0449L7 19.9287C6.542 19.6643 6.02448 19.6019 5.54492 19.7148C4.99359 19.8446 4.19297 19.7898 3.64941 19.1562C2.76608 18.1265 2.06978 16.9306 1.61328 15.6211C1.30135 14.7259 1.78902 13.9386 2.27148 13.541C2.71856 13.1726 3 12.6196 3 12C3 11.38 2.71846 10.8265 2.27148 10.458C1.78921 10.0604 1.3014 9.27314 1.61328 8.37793L1.7959 7.8916C2.24706 6.77172 2.87658 5.74368 3.64941 4.84277C4.19309 4.2091 4.99434 4.15406 5.5459 4.28418C6.02565 4.39731 6.54246 4.33542 7 4.07129C7.49816 3.78357 7.82462 3.31486 7.94531 2.79102C8.07264 2.23828 8.47715 1.54177 9.28906 1.33594L9.61719 1.25879C10.3855 1.08925 11.1831 1.00001 12 1L12.3486 1.00586ZM12 8C9.79086 8 8 9.79086 8 12C8 14.2091 9.79086 16 12 16C14.209 15.9998 16 14.209 16 12C16 9.79099 14.209 8.0002 12 8Z" fill="white"/>
</svg>
