<svg width="24" height="24" viewBox="0 0 24 24" fill="none" xmlns="http://www.w3.org/2000/svg">
    <path d="M12 2C17.51 2 22 6 22 11C22 16 17.51 20 12 20C10.9858 20.0036 9.97606 19.8656 9 19.59L4.41 21.89C4.28392 21.9585 4.14343 21.9962 4 22C3.8458 22.0045 3.69265 21.9733 3.55252 21.9088C3.4124 21.8443 3.28909 21.7483 3.19225 21.6282C3.09542 21.5081 3.02767 21.3672 2.99432 21.2166C2.96097 21.066 2.96291 20.9097 3 20.76L4.06 16.51C2.73556 14.9793 2.00457 13.0241 2 11C2 6 6.49 2 12 2Z" fill="white"/>
</svg>
