<svg width="16" height="16" viewBox="0 0 16 16" fill="none" xmlns="http://www.w3.org/2000/svg">
    <path d="M15 12.3779C14.9998 13.3104 14.244 14.0662 13.3115 14.0664H2.68848C1.75604 14.0662 1.00019 13.3104 1 12.3779V8.82715C1.46516 9.06601 1.98618 9.21227 2.53809 9.24023L2.7334 9.24512H6.05566C6.11989 9.64772 6.46801 9.95597 6.88867 9.95605H9.4668C9.88747 9.95597 10.2356 9.64772 10.2998 9.24512H13.2666L13.4629 9.24023C14.0147 9.21218 14.535 9.06507 15 8.82617V12.3779ZM10.041 1.38477C10.6794 1.44991 11.1777 1.98893 11.1777 2.64453V4.06641H13.3115C14.2441 4.06663 15 4.82325 15 5.75586V7.28809C14.5467 7.71461 13.9381 7.97846 13.2666 7.97852H10.3115V7.95605C10.3115 7.48974 9.93309 7.11142 9.4668 7.11133H6.88867C6.42238 7.11143 6.04395 7.48974 6.04395 7.95605V7.97852H2.7334C2.06195 7.97847 1.45333 7.71452 1 7.28809V5.75586C1 4.82325 1.75592 4.06663 2.68848 4.06641H5.17773V2.64453C5.17777 1.94502 5.74483 1.37796 6.44434 1.37793H9.91113L10.041 1.38477ZM6.44434 4.06641H9.91113V2.64453H6.44434V4.06641Z" fill="white"/>
</svg>
