<svg width="24" height="24" viewBox="0 0 24 24" fill="none" xmlns="http://www.w3.org/2000/svg">
    <path d="M11.0842 3.08754C11.4342 2.28984 12.5658 2.28984 12.9158 3.08754L15.035 7.91842C15.1765 8.24107 15.4774 8.46543 15.827 8.50901L20.9337 9.14565C21.766 9.24942 22.1085 10.2702 21.5071 10.8549L17.6653 14.5906C17.4247 14.8245 17.3175 15.1635 17.3798 15.4932L18.3892 20.8348C18.5487 21.679 17.6398 22.3181 16.8994 21.8823L12.5072 19.2973C12.1942 19.113 11.8058 19.113 11.4928 19.2973L7.10063 21.8823C6.36023 22.3181 5.45126 21.679 5.61079 20.8348L6.62022 15.4932C6.68253 15.1635 6.57531 14.8245 6.33474 14.5906L2.49292 10.8549C1.89154 10.2702 2.23398 9.24942 3.06634 9.14565L8.17298 8.50901C8.5226 8.46543 8.82349 8.24107 8.96503 7.91842L11.0842 3.08754Z" fill="white"/>
</svg>
