<svg width="32" height="32" viewBox="0 0 32 32" fill="none" xmlns="http://www.w3.org/2000/svg">
    <path d="M0 16C0 7.16344 7.16344 0 16 0C24.8366 0 32 7.16344 32 16C32 24.8366 24.8366 32 16 32C7.16344 32 0 24.8366 0 16Z" fill="black" fill-opacity="0.35"/>
    <rect x="16.1912" y="9.75" width="5.25" height="5.25" rx="2.625" transform="rotate(90 16.1912 9.75)" stroke="white" stroke-width="1.5"/>
    <path d="M9.00014 12.1768L10.5884 12.1768" stroke="white" stroke-width="1.5" stroke-linecap="round"/>
    <path d="M16.5442 12.1763L22.103 12.1763" stroke="white" stroke-width="1.5" stroke-linecap="round"/>
    <rect x="14.9119" y="23.25" width="5.25" height="5.25" rx="2.625" transform="rotate(-90 14.9119 23.25)" stroke="white" stroke-width="1.5"/>
    <path d="M22.1031 20.8237L20.5149 20.8237" stroke="white" stroke-width="1.5" stroke-linecap="round"/>
    <path d="M14.5591 20.8237L9.00024 20.8237" stroke="white" stroke-width="1.5" stroke-linecap="round"/>
</svg>
