<svg width="24" height="24" viewBox="0 0 24 24" fill="none" xmlns="http://www.w3.org/2000/svg">
    <path d="M19.0498 17.5C19.713 17.5 20.2499 18.0907 20.25 18.8203V18.9307C20.2498 19.6594 19.7129 20.25 19.0498 20.25H4.94922C4.28688 20.2497 3.75022 19.6593 3.75 18.9307V18.8203C3.75008 18.0908 4.2868 17.5003 4.94922 17.5H19.0498ZM12 3.75C13.062 3.75 13.9216 4.58352 13.9219 5.6123C13.9219 6.32886 13.5052 6.94998 12.8936 7.26172C13.0809 8.68566 13.6341 10.5239 15.1338 11.167C16.8176 11.8881 18.9903 11.0914 20.127 8.80957C19.8363 8.51867 19.6572 8.12187 19.6572 7.68457C19.6574 6.79049 20.4061 6.06543 21.3291 6.06543C22.2514 6.06553 22.9998 6.79056 23 7.68457C23 8.50838 22.3658 9.18799 21.5449 9.29102L19.6182 16.125H4.38184L2.45605 9.29102C1.63561 9.18817 1 8.50852 1 7.68457C1.00022 6.79049 1.74883 6.06543 2.67188 6.06543C3.59419 6.06548 4.34255 6.79052 4.34277 7.68457C4.34277 8.12188 4.16372 8.51867 3.87305 8.80957C5.0097 11.0914 7.18236 11.8881 8.86621 11.167C10.366 10.5239 10.9192 8.68571 11.1064 7.26172C10.4948 6.94993 10.0781 6.32884 10.0781 5.6123C10.0783 4.58352 10.9387 3.75 12 3.75Z" fill="white"/>
</svg>
