<svg width="32" height="32" viewBox="0 0 32 32" fill="none" xmlns="http://www.w3.org/2000/svg">
    <circle cx="16.0002" cy="16.0002" r="16.0002" fill="url(#paint0_linear_2977_6058)"/>
    <path d="M15.0847 8.08802C15.4347 7.29032 16.5663 7.29032 16.9162 8.08802L18.7388 12.2427C18.8803 12.5653 19.1812 12.7897 19.5309 12.8333L23.9341 13.3822C24.7665 13.486 25.1089 14.5067 24.5076 15.0915L21.1857 18.3215C20.9452 18.5554 20.838 18.8944 20.9003 19.2241L21.7717 23.8353C21.9312 24.6795 21.0222 25.3186 20.2818 24.8828L16.5077 22.6615C16.1947 22.4772 15.8063 22.4772 15.4933 22.6615L11.7192 24.8828C10.9788 25.3186 10.0698 24.6795 10.2293 23.8353L11.1007 19.2241C11.163 18.8944 11.0558 18.5554 10.8152 18.3215L7.49341 15.0915C6.89203 14.5067 7.23447 13.486 8.06683 13.3822L12.4701 12.8333C12.8197 12.7897 13.1206 12.5653 13.2622 12.2427L15.0847 8.08802Z" fill="white"/>
    <defs>
        <linearGradient id="paint0_linear_2977_6058" x1="9.25366" y1="-7.38469" x2="18.5478" y2="45.6523" gradientUnits="userSpaceOnUse">
            <stop stop-color="#FEAC47"/>
            <stop offset="1" stop-color="#E25F27"/>
        </linearGradient>
    </defs>
</svg>
