<svg width="24" height="24" viewBox="0 0 24 24" fill="none" xmlns="http://www.w3.org/2000/svg">
    <g clip-path="url(#clip0_2605_1190)">
        <path d="M14.7413 3.66592L13.3847 2.50978C12.5871 1.83007 11.4132 1.83007 10.6157 2.50978L9.25884 3.66595C8.91705 3.95722 8.49206 4.13317 8.04442 4.16889L6.26901 4.3105C5.2244 4.39386 4.39357 5.22339 4.3102 6.26801L4.16806 8.04485C4.13234 8.49249 3.95755 8.91728 3.66628 9.25907L2.50962 10.616C1.82991 11.4136 1.83023 12.5865 2.50994 13.3841L3.66556 14.741C3.95682 15.0828 4.13331 15.5075 4.16904 15.9552L4.31118 17.732C4.39454 18.7766 5.22299 19.6062 6.26759 19.6895L8.04497 19.8311C8.49261 19.8669 8.91739 20.0428 9.25918 20.3341L10.6155 21.4903C11.4131 22.17 12.5871 22.1699 13.3847 21.4901L14.741 20.334C15.0828 20.0427 15.5076 19.8671 15.9553 19.8314L17.7326 19.6895C18.7772 19.6062 19.6057 18.7764 19.689 17.7318L19.8312 15.9551C19.8669 15.5074 20.0434 15.0823 20.3347 14.7405L21.4903 13.384C22.17 12.5864 22.1699 11.4132 21.4902 10.6156L20.3346 9.25927C20.0433 8.91748 19.8666 8.49249 19.8308 8.04485L19.6896 6.2678C19.6062 5.22318 18.7765 4.39397 17.7319 4.3106L15.9551 4.169C15.5075 4.13328 15.0831 3.95719 14.7413 3.66592Z" fill="white"/>
        <path d="M15 10L11 14L9 12" stroke="black" stroke-width="2" stroke-linecap="round" stroke-linejoin="round"/>
    </g>
    <defs>
        <clipPath id="clip0_2605_1190">
            <rect width="24" height="24" fill="white"/>
        </clipPath>
    </defs>
</svg>
