<svg width="16" height="16" viewBox="0 0 16 16" fill="none" xmlns="http://www.w3.org/2000/svg">
    <path d="M13.5957 1.5957C13.8187 1.37267 14.1811 1.37291 14.4043 1.5957C14.6274 1.81886 14.6274 2.18114 14.4043 2.4043L8.80858 8L14.4043 13.5957C14.6274 13.8189 14.6274 14.1811 14.4043 14.4043C14.1811 14.6275 13.8188 14.6275 13.5957 14.4043L7.99998 8.80859L2.40428 14.4043C2.18112 14.6275 1.81884 14.6275 1.59569 14.4043C1.3729 14.1811 1.37265 13.8187 1.59569 13.5957L7.19139 8L1.59569 2.4043C1.3729 2.18111 1.37265 1.81874 1.59569 1.5957C1.81872 1.37267 2.18109 1.37291 2.40428 1.5957L7.99998 7.19141L13.5957 1.5957Z" fill="white"/>
</svg>
