<svg width="32" height="32" viewBox="0 0 32 32" fill="none" xmlns="http://www.w3.org/2000/svg">
<path d="M20 8.49422C20 6.21111 17.3178 4.98374 15.5901 6.47624L11.1509 10.311C10.6665 10.7295 10.0478 10.9597 9.40768 10.9597L7.33331 10.9597C5.49237 10.9597 4 12.4521 4 14.2931V18.6837C4 20.5247 5.49238 22.017 7.33333 22.017H9.40773C10.0478 22.017 10.6666 22.2473 11.151 22.6657L15.5901 26.5005C17.3178 27.993 20 26.7656 20 24.4825V16.4883V8.49422Z" stroke="white" stroke-width="2.5"/>
<path d="M24 20.489C24.8372 19.3748 25.3333 17.9898 25.3333 16.489C25.3333 14.9882 24.8372 13.6032 24 12.489" stroke="white" stroke-width="2.5" stroke-linecap="round"/>
<path d="M26.6667 24.489C28.3412 22.2606 29.3334 19.4906 29.3334 16.489C29.3334 13.4874 28.3412 10.7174 26.6667 8.48901" stroke="white" stroke-width="2.5" stroke-linecap="round"/>
</svg>
